<svg width="16" height="14" viewBox="0 0 16 14" fill="none" xmlns="http://www.w3.org/2000/svg">
<path d="M7.42102 10.4868L4.79602 7.86175L5.85352 6.80425L7.42102 8.37175L10.871 4.92175L11.9285 5.97925L7.42102 10.4868Z" fill="#889DAA"/>
<path fill-rule="evenodd" clip-rule="evenodd" d="M2 13.75H14C14.8284 13.75 15.5 13.0784 15.5 12.25V3.25C15.5 2.42157 14.8284 1.75 14 1.75H8.3105L7.03025 0.46975C6.88963 0.329088 6.6989 0.25 6.5 0.25H2C1.17157 0.25 0.5 0.921573 0.5 1.75V12.25C0.5 13.0784 1.17157 13.75 2 13.75ZM2 12.25V3.25H14V12.25H2Z" fill="#889DAA"/>
</svg>
