<svg width="15" height="16" viewBox="0 0 15 16" fill="none" xmlns="http://www.w3.org/2000/svg">
<path d="M10.98 7.64C11.6755 7.64 12.24 8.20448 12.24 8.9V11.78C12.24 12.1142 12.1072 12.4347 11.871 12.671C11.6347 12.9073 11.3142 13.04 10.98 13.04H7.542L7.506 13.004C7.77096 12.4734 7.92 11.8736 7.92 11.24C7.92 10.3926 7.6536 9.60704 7.2 8.96264V8.72H7.01496C6.68208 8.31693 6.273 7.98345 5.81112 7.73864C5.9616 7.67528 6.12648 7.64 6.3 7.64H10.98V7.64ZM8.28 10.88V11.96H10.98C11.0277 11.96 11.0735 11.941 11.1073 11.9073C11.141 11.8735 11.16 11.8277 11.16 11.78V10.88H8.28ZM11.16 9.8V8.9C11.16 8.85226 11.141 8.80648 11.1073 8.77272C11.0735 8.73896 11.0277 8.72 10.98 8.72H8.28V9.8H11.16ZM12.96 14.12H8.622L8.99064 14.4894C9.1908 14.6888 9.3096 14.9401 9.34704 15.2H12.96C13.3419 15.2 13.7082 15.0483 13.9782 14.7782C14.2483 14.5082 14.4 14.1419 14.4 13.76V6.43616C14.3999 6.05428 14.2482 5.68807 13.9781 5.41808L9.7812 1.22192C9.77007 1.21157 9.75829 1.20195 9.74592 1.19312C9.73702 1.18624 9.72837 1.17904 9.72 1.17152C9.67046 1.12477 9.61778 1.08147 9.56232 1.04192C9.54388 1.03003 9.52464 1.01944 9.50472 1.01024L9.47016 0.99296L9.43416 0.97208C9.39528 0.94976 9.35568 0.92672 9.31464 0.90944C9.17126 0.852173 9.01952 0.818615 8.86536 0.81008C8.85112 0.809153 8.83694 0.80747 8.82288 0.80504C8.80334 0.802022 8.78361 0.800338 8.76384 0.8H4.32C3.93809 0.8 3.57182 0.951714 3.30177 1.22177C3.03171 1.49182 2.88 1.85809 2.88 2.24V7.42904C3.23141 7.3298 3.59485 7.27965 3.96 7.28V2.24C3.96 2.14452 3.99793 2.05295 4.06544 1.98544C4.13295 1.91793 4.22452 1.88 4.32 1.88H8.64V5.12C8.64 5.50191 8.79171 5.86818 9.06177 6.13823C9.33182 6.40829 9.69809 6.56 10.08 6.56H13.32V13.76C13.32 13.8555 13.2821 13.947 13.2146 14.0146C13.147 14.0821 13.0555 14.12 12.96 14.12ZM12.5122 5.48H10.08C9.98452 5.48 9.89295 5.44207 9.82544 5.37456C9.75793 5.30705 9.72 5.21548 9.72 5.12V2.68712L12.5122 5.48ZM3.96 14.48C4.63284 14.481 5.28915 14.2715 5.83704 13.881L7.7184 15.7616C7.76784 15.8147 7.82745 15.8572 7.89369 15.8867C7.95993 15.9162 8.03144 15.9321 8.10394 15.9334C8.17645 15.9347 8.24847 15.9213 8.31571 15.8942C8.38295 15.867 8.44403 15.8266 8.49531 15.7753C8.54658 15.724 8.58701 15.6629 8.61417 15.5957C8.64133 15.5285 8.65467 15.4565 8.65339 15.3839C8.65211 15.3114 8.63624 15.2399 8.60672 15.1737C8.57721 15.1075 8.53465 15.0478 8.4816 14.9984L6.60096 13.117C7.02174 12.525 7.2314 11.8088 7.19628 11.0833C7.16115 10.3579 6.88329 9.66523 6.40729 9.11663C5.93129 8.56803 5.28477 8.19528 4.5715 8.05822C3.85823 7.92115 3.11959 8.02772 2.47416 8.36082C1.82873 8.69392 1.31394 9.23422 1.01243 9.895C0.710915 10.5558 0.640172 11.2987 0.811554 12.0045C0.982936 12.7103 1.3865 13.3381 1.95747 13.787C2.52843 14.2359 3.23368 14.48 3.96 14.48ZM3.96 13.4C3.38713 13.4 2.83773 13.1724 2.43265 12.7674C2.02757 12.3623 1.8 11.8129 1.8 11.24C1.8 10.6671 2.02757 10.1177 2.43265 9.71265C2.83773 9.30757 3.38713 9.08 3.96 9.08C4.53287 9.08 5.08227 9.30757 5.48735 9.71265C5.89243 10.1177 6.12 10.6671 6.12 11.24C6.12 11.8129 5.89243 12.3623 5.48735 12.7674C5.08227 13.1724 4.53287 13.4 3.96 13.4Z" fill="#889DAA"/>
</svg>
