<svg width="20" height="20" viewBox="0 0 20 20" fill="none" xmlns="http://www.w3.org/2000/svg">
<path d="M10 20.0005C4.47715 20.0005 0 15.5233 0 10.0005C0 4.47764 4.47715 0.000488281 10 0.000488281C15.5228 0.000488281 20 4.47764 20 10.0005C19.9939 15.5208 15.5203 19.9944 10 20.0005ZM10 2.00049C5.58172 2.00049 2 5.58221 2 10.0005C2 14.4188 5.58172 18.0005 10 18.0005C14.4183 18.0005 18 14.4188 18 10.0005C17.995 5.58427 14.4162 2.00545 10 2.00049ZM9.95 13.5005L5 8.55049L6.414 7.13649L9.95 10.6715L13.486 7.13649L14.9 8.55049L9.95 13.5005Z" fill="#1B2125"/>
</svg>
