<svg width="40" height="40" viewBox="0 0 40 40" fill="none" xmlns="http://www.w3.org/2000/svg">
<path d="M25 6.66669C28.5362 6.66669 31.9276 8.07144 34.4281 10.5719C36.9286 13.0724 38.3334 16.4638 38.3334 20C38.3334 23.5362 36.9286 26.9276 34.4281 29.4281C31.9276 31.9286 28.5362 33.3334 25 33.3334C21.4638 33.3334 18.0724 31.9286 15.5719 29.4281C13.0714 26.9276 11.6667 23.5362 11.6667 20C11.6667 16.4638 13.0714 13.0724 15.5719 10.5719C18.0724 8.07144 21.4638 6.66669 25 6.66669V6.66669ZM25 10C22.3479 10 19.8043 11.0536 17.929 12.929C16.0536 14.8043 15 17.3479 15 20C15 22.6522 16.0536 25.1957 17.929 27.0711C19.8043 28.9465 22.3479 30 25 30C27.6522 30 30.1957 28.9465 32.0711 27.0711C33.9465 25.1957 35 22.6522 35 20C35 17.3479 33.9465 14.8043 32.0711 12.929C30.1957 11.0536 27.6522 10 25 10ZM23.3334 13.3334H25.8334V19.6334L29.7167 23.5167L27.95 25.2834L23.3334 20.6667V13.3334ZM3.33335 30C2.89133 30 2.4674 29.8244 2.15484 29.5119C1.84228 29.1993 1.66669 28.7754 1.66669 28.3334C1.66669 27.8913 1.84228 27.4674 2.15484 27.1548C2.4674 26.8423 2.89133 26.6667 3.33335 26.6667H9.71669C10.2334 27.85 10.9 28.9667 11.6667 30H3.33335ZM5.00002 21.6667C4.55799 21.6667 4.13407 21.4911 3.82151 21.1785C3.50895 20.866 3.33335 20.442 3.33335 20C3.33335 19.558 3.50895 19.1341 3.82151 18.8215C4.13407 18.5089 4.55799 18.3334 5.00002 18.3334H8.41669L8.33335 20L8.41669 21.6667H5.00002ZM6.66669 13.3334C6.22466 13.3334 5.80074 13.1578 5.48818 12.8452C5.17561 12.5326 5.00002 12.1087 5.00002 11.6667C5.00002 11.2247 5.17561 10.8007 5.48818 10.4882C5.80074 10.1756 6.22466 10 6.66669 10H11.6667C10.9 11.0334 10.2334 12.15 9.71669 13.3334H6.66669Z" fill="#58823A"/>
</svg>
