<svg width="34" height="34" viewBox="0 0 34 34" fill="none" xmlns="http://www.w3.org/2000/svg">
<rect width="34" height="34" rx="17" fill="#F3F4F6"/>
<path d="M22.25 18.5V12.5C22.25 11.675 21.575 11 20.75 11H10.25C9.425 11 8.75 11.675 8.75 12.5V18.5C8.75 19.325 9.425 20 10.25 20H20.75C21.575 20 22.25 19.325 22.25 18.5ZM20.75 18.5H10.25V12.5H20.75V18.5ZM15.5 13.25C14.255 13.25 13.25 14.255 13.25 15.5C13.25 16.745 14.255 17.75 15.5 17.75C16.745 17.75 17.75 16.745 17.75 15.5C17.75 14.255 16.745 13.25 15.5 13.25ZM25.25 13.25V21.5C25.25 22.325 24.575 23 23.75 23H11C11 22.25 11 22.325 11 21.5H23.75V13.25C24.575 13.25 24.5 13.25 25.25 13.25Z" fill="#1B2125"/>
</svg>
