<svg width="52" height="52" viewBox="0 0 52 52" fill="none" xmlns="http://www.w3.org/2000/svg">
<rect width="52" height="52" rx="8" fill="#FEF5E7"/>
<path d="M32 34.0001H17C16.7346 34.0027 16.4794 33.898 16.2923 33.7097C16.1053 33.5214 16.0024 33.2654 16.007 33H16V19C16 17.8954 16.8954 17 18 17H24C24.2234 17.0002 24.4402 17.0752 24.616 17.213L26.9 19H32C33.1046 19 34 19.8954 34 21V25H35C35.3361 25 35.6498 25.169 35.8348 25.4496C36.0198 25.7302 36.0514 26.0851 35.919 26.394L32.919 33.394C32.7614 33.7616 32.4 34.0001 32 34.0001ZM20.66 27L18.517 32H31.341L33.484 27H20.66ZM18 21V28.13L19.081 25.606C19.2386 25.2384 19.6 25 20 25H32V21H18Z" fill="#F59E0B"/>
</svg>
