<svg width="52" height="52" viewBox="0 0 52 52" fill="none" xmlns="http://www.w3.org/2000/svg">
<rect width="52" height="52" rx="8" fill="#E3FDF4"/>
<path d="M25.228 30.649L21.728 27.149L23.138 25.739L25.228 27.829L29.828 23.229L31.238 24.639L25.228 30.649Z" fill="#10B981"/>
<path fill-rule="evenodd" clip-rule="evenodd" d="M18 35H34C35.1046 35 36 34.1046 36 33V21C36 19.8954 35.1046 19 34 19H26.414L24.707 17.293C24.5195 17.1055 24.2652 17 24 17H18C16.8954 17 16 17.8954 16 19V33C16 34.1046 16.8954 35 18 35ZM18 33V21H34V33H18Z" fill="#10B981"/>
</svg>
