<svg width="52" height="52" viewBox="0 0 52 52" fill="none" xmlns="http://www.w3.org/2000/svg">
<rect width="52" height="52" rx="8" fill="#FDE8E8"/>
<path d="M23.813 30.414L22.4 29L24.693 26.707L22.4 24.414L23.814 23L26.107 25.292L28.4 23L29.814 24.414L27.521 26.707L29.814 29L28.4 30.413L26.106 28.121L23.814 30.414H23.813Z" fill="#EF4444"/>
<path fill-rule="evenodd" clip-rule="evenodd" d="M18 35H34C35.1046 35 36 34.1046 36 33V21C36 19.8954 35.1046 19 34 19H26.414L24.707 17.293C24.5195 17.1055 24.2652 17 24 17H18C16.8954 17 16 17.8954 16 19V33C16 34.1046 16.8954 35 18 35ZM18 33V21H34V33H18Z" fill="#EF4444"/>
</svg>
