<svg width="52" height="52" viewBox="0 0 52 52" fill="none" xmlns="http://www.w3.org/2000/svg">
<rect width="52" height="52" rx="8" fill="#F0FCFF"/>
<path fill-rule="evenodd" clip-rule="evenodd" d="M23.5 23H28.7V25H28.6985L28.7005 25.8066L27.5071 27L28.7 28.1929V31H23.5V28.4035L23.4988 28.1941L24.7049 26.988L23.4993 25.6963L23.5035 24.502L23.5 24.2L23.5 23ZM26.1 27.8821L25.2 28.7821V29.3H27V28.7821L26.1 27.8821ZM26.1 26.1179L27 25.2179V24.7H25.2V25.2179L26.1 26.1179Z" fill="#73DFFC"/>
<path fill-rule="evenodd" clip-rule="evenodd" d="M18 35H34C35.1046 35 36 34.1046 36 33V21C36 19.8954 35.1046 19 34 19H26.414L24.707 17.293C24.5195 17.1055 24.2652 17 24 17H18C16.8954 17 16 17.8954 16 19V33C16 34.1046 16.8954 35 18 35ZM18 33V21H34V33H18Z" fill="#73DFFC"/>
</svg>
