<svg width="14" height="14" viewBox="0 0 14 14" fill="none" xmlns="http://www.w3.org/2000/svg">
<path d="M5.3125 5.875V10.375C5.3125 10.5242 5.37176 10.6673 5.47725 10.7727C5.58274 10.8782 5.72582 10.9375 5.875 10.9375C6.02418 10.9375 6.16726 10.8782 6.27275 10.7727C6.37824 10.6673 6.4375 10.5242 6.4375 10.375V5.875C6.4375 5.72582 6.37824 5.58274 6.27275 5.47725C6.16726 5.37176 6.02418 5.3125 5.875 5.3125C5.72582 5.3125 5.58274 5.37176 5.47725 5.47725C5.37176 5.58274 5.3125 5.72582 5.3125 5.875ZM8.125 5.3125C8.27418 5.3125 8.41726 5.37176 8.52275 5.47725C8.62824 5.58274 8.6875 5.72582 8.6875 5.875V10.375C8.6875 10.5242 8.62824 10.6673 8.52275 10.7727C8.41726 10.8782 8.27418 10.9375 8.125 10.9375C7.97582 10.9375 7.83274 10.8782 7.72725 10.7727C7.62176 10.6673 7.5625 10.5242 7.5625 10.375V5.875C7.5625 5.72582 7.62176 5.58274 7.72725 5.47725C7.83274 5.37176 7.97582 5.3125 8.125 5.3125ZM9.25 2.5H12.625C12.7742 2.5 12.9173 2.55926 13.0227 2.66475C13.1282 2.77024 13.1875 2.91332 13.1875 3.0625C13.1875 3.21168 13.1282 3.35476 13.0227 3.46025C12.9173 3.56574 12.7742 3.625 12.625 3.625H12.0029L11.1569 11.248C11.0805 11.936 10.753 12.5716 10.2372 13.0332C9.72139 13.4949 9.05346 13.7501 8.36125 13.75H5.63875C4.94654 13.7501 4.27861 13.4949 3.7628 13.0332C3.247 12.5716 2.91955 11.936 2.84312 11.248L1.996 3.625H1.375C1.22582 3.625 1.08274 3.56574 0.977253 3.46025C0.871763 3.35476 0.8125 3.21168 0.8125 3.0625C0.8125 2.91332 0.871763 2.77024 0.977253 2.66475C1.08274 2.55926 1.22582 2.5 1.375 2.5H4.75C4.75 1.90326 4.98705 1.33097 5.40901 0.90901C5.83097 0.487053 6.40326 0.25 7 0.25C7.59674 0.25 8.16903 0.487053 8.59099 0.90901C9.01295 1.33097 9.25 1.90326 9.25 2.5V2.5ZM7 1.375C6.70163 1.375 6.41548 1.49353 6.20451 1.7045C5.99353 1.91548 5.875 2.20163 5.875 2.5H8.125C8.125 2.20163 8.00647 1.91548 7.79549 1.7045C7.58452 1.49353 7.29837 1.375 7 1.375V1.375ZM3.12888 3.625L3.96137 11.1243C4.00733 11.537 4.20384 11.9182 4.51332 12.1951C4.82279 12.472 5.22349 12.6251 5.63875 12.625H8.36125C8.77631 12.6248 9.17674 12.4716 9.48598 12.1947C9.79521 11.9179 9.99157 11.5368 10.0375 11.1243L10.8723 3.625H3.13H3.12888Z" fill="#1B2125"/>
</svg>
