<svg width="16" height="14" viewBox="0 0 16 14" fill="none" xmlns="http://www.w3.org/2000/svg">
<path d="M6.35977 10.3106L5.30002 9.25012L7.01977 7.53037L5.30002 5.81062L6.36052 4.75012L8.08027 6.46912L9.80002 4.75012L10.8605 5.81062L9.14077 7.53037L10.8605 9.25012L9.80002 10.3099L8.07952 8.59087L6.36052 10.3106H6.35977Z" fill="#889DAA"/>
<path fill-rule="evenodd" clip-rule="evenodd" d="M2 13.7501H14C14.8284 13.7501 15.5 13.0786 15.5 12.2501V3.25012C15.5 2.42169 14.8284 1.75012 14 1.75012H8.3105L7.03025 0.469872C6.88963 0.32921 6.6989 0.250122 6.5 0.250122H2C1.17157 0.250122 0.5 0.921695 0.5 1.75012V12.2501C0.5 13.0786 1.17157 13.7501 2 13.7501ZM2 12.2501V3.25012H14V12.2501H2Z" fill="#889DAA"/>
</svg>
