<svg width="22" height="20" viewBox="0 0 22 20" fill="none" xmlns="http://www.w3.org/2000/svg">
<path d="M11 4C12.8387 3.99388 14.6419 4.50678 16.2021 5.47972C17.7624 6.45267 19.0164 7.84616 19.82 9.5C19.24 10.6948 18.4195 11.757 17.41 12.62L18.82 14.03C20.21 12.8 21.31 11.26 22 9.5C20.27 5.11 16 2 11 2C9.73 2 8.51 2.2 7.36 2.57L9.01 4.22C9.66 4.09 10.32 4 11 4ZM9.93 5.14L12 7.21C12.57 7.46 13.03 7.92 13.28 8.49L15.35 10.56C15.43 10.22 15.49 9.86 15.49 9.49C15.5 7.01 13.48 5 11 5C10.63 5 10.28 5.05 9.93 5.14ZM1.01 1.87L3.69 4.55C2.04032 5.84116 0.766249 7.55028 0 9.5C1.73 13.89 6 17 11 17C12.52 17 13.98 16.71 15.32 16.18L18.74 19.6L20.15 18.19L2.42 0.449997L1.01 1.87ZM8.51 9.37L11.12 11.98C11.08 11.99 11.04 12 11 12C10.337 12 9.70107 11.7366 9.23223 11.2678C8.76339 10.7989 8.5 10.163 8.5 9.5C8.5 9.45 8.51 9.42 8.51 9.37ZM5.11 5.97L6.86 7.72C6.62291 8.28351 6.50052 8.88864 6.5 9.5C6.5013 10.244 6.68677 10.9761 7.03987 11.631C7.39297 12.2859 7.90271 12.8432 8.52359 13.2532C9.14448 13.6632 9.85721 13.9131 10.5982 13.9805C11.3391 14.048 12.0853 13.931 12.77 13.64L13.75 14.62C12.87 14.86 11.95 15 11 15C9.16126 15.0061 7.35813 14.4932 5.79788 13.5203C4.23763 12.5473 2.98362 11.1538 2.18 9.5C2.88 8.07 3.9 6.89 5.11 5.97Z" fill="#1B2125"/>
</svg>
