<svg width="12" height="12" viewBox="0 0 12 12" fill="none" xmlns="http://www.w3.org/2000/svg">
<path d="M5.61401 8.3245L3.86401 6.5745L4.56901 5.8695L5.61401 6.9145L7.91401 4.6145L8.61901 5.3195L5.61401 8.3245Z" fill="#58823A"/>
<path fill-rule="evenodd" clip-rule="evenodd" d="M2 10.5H10C10.5523 10.5 11 10.0523 11 9.5V3.5C11 2.94772 10.5523 2.5 10 2.5H6.207L5.3535 1.6465C5.25975 1.55273 5.1326 1.5 5 1.5H2C1.44772 1.5 1 1.94772 1 2.5V9.5C1 10.0523 1.44772 10.5 2 10.5ZM2 9.5V3.5H10V9.5H2Z" fill="#58823A"/>
</svg>
