<svg width="16" height="14" viewBox="0 0 16 14" fill="none" xmlns="http://www.w3.org/2000/svg">
<path d="M6.26136 5.08543V6.42389L6.0143 6.51355C5.52803 6.69004 5.17045 7.1729 5.17045 7.75011C5.17045 8.32733 5.52803 8.81019 6.0143 8.98667L6.26136 9.07634V10.4148L5.78996 10.2894C4.68275 9.99483 3.875 8.96704 3.875 7.75011C3.875 6.53319 4.68275 5.5054 5.78996 5.21084L6.26136 5.08543Z" fill="#889DAA"/>
<path fill-rule="evenodd" clip-rule="evenodd" d="M7.01136 7.75011C7.01136 6.31084 8.14483 5.12511 9.56818 5.12511C10.9915 5.12511 12.125 6.31084 12.125 7.75011C12.125 9.18939 10.9915 10.3751 9.56818 10.3751C8.14483 10.3751 7.01136 9.18939 7.01136 7.75011ZM9.56818 6.43761C8.88336 6.43761 8.30682 7.01532 8.30682 7.75011C8.30682 8.48491 8.88336 9.06261 9.56818 9.06261C10.253 9.06261 10.8295 8.48491 10.8295 7.75011C10.8295 7.01532 10.253 6.43761 9.56818 6.43761Z" fill="#889DAA"/>
<path fill-rule="evenodd" clip-rule="evenodd" d="M14 13.7501C14.8284 13.7501 15.5 13.0786 15.5 12.2501V3.25012C15.5 2.42169 14.8284 1.75012 14 1.75012H8.3105L7.03025 0.469872C6.88963 0.32921 6.6989 0.250122 6.5 0.250122H2C1.17157 0.250122 0.5 0.921695 0.5 1.75012V12.2501C0.5 13.0786 1.17157 13.7501 2 13.7501H14ZM2 12.2501V3.25012H14V12.2501H2Z" fill="#889DAA"/>
</svg>
