<svg width="16" height="13" viewBox="0 0 16 13" fill="none" xmlns="http://www.w3.org/2000/svg">
<path d="M12.5 13.0002H1.25C1.05094 13.0022 0.859514 12.9236 0.719247 12.7824C0.57898 12.6411 0.501797 12.4492 0.50525 12.2501H0.5V1.75012C0.5 0.921695 1.17157 0.250122 2 0.250122H6.5C6.66752 0.250282 6.83016 0.30652 6.962 0.409872L8.675 1.75012H12.5C13.3284 1.75012 14 2.42169 14 3.25012V6.25012H14.75C15.0021 6.25015 15.2373 6.37683 15.3761 6.58732C15.5148 6.7978 15.5386 7.06391 15.4393 7.29562L13.1893 12.5456C13.0711 12.8213 12.8 13.0002 12.5 13.0002ZM3.995 7.75012L2.38775 11.5001H12.0058L13.613 7.75012H3.995ZM2 3.25012V8.59762L2.81075 6.70462C2.92894 6.42892 3.20003 6.25016 3.5 6.25012H12.5V3.25012H2Z" fill="#889DAA"/>
</svg>
