<svg width="34" height="34" viewBox="0 0 34 34" fill="none" xmlns="http://www.w3.org/2000/svg">
<rect y="0.000488281" width="34" height="34" rx="17" fill="#F3F4F6"/>
<path d="M17 24.5005C12.8579 24.5005 9.5 21.1426 9.5 17.0005C9.5 12.8584 12.8579 9.50049 17 9.50049C21.1421 9.50049 24.5 12.8584 24.5 17.0005C24.4955 21.1407 21.1403 24.4959 17 24.5005ZM11 17.1295C11.0355 20.4304 13.7308 23.0826 17.0319 23.065C20.333 23.0472 22.9997 20.3661 22.9997 17.065C22.9997 13.7639 20.333 11.0828 17.0319 11.065C13.7308 11.0473 11.0355 13.6996 11 17.0005V17.1295ZM18.5 20.7505H16.25V17.7505H15.5V16.2505H17.75V19.2505H18.5V20.7505ZM17.75 14.7505H16.25V13.2505H17.75V14.7505Z" fill="#1B2125"/>
</svg>
