<svg width="24" height="24" viewBox="0 0 24 24" fill="none" xmlns="http://www.w3.org/2000/svg">
<path fill-rule="evenodd" clip-rule="evenodd" d="M12 15.8438C11.2398 15.8438 10.4966 15.6183 9.86453 15.196C9.23243 14.7736 8.73976 14.1733 8.44884 13.4709C8.15791 12.7686 8.08179 11.9957 8.23011 11.2501C8.37842 10.5045 8.7445 9.81962 9.28206 9.28206C9.81962 8.7445 10.5045 8.37842 11.2501 8.23011C11.9957 8.08179 12.7686 8.15791 13.4709 8.44884C14.1733 8.73976 14.7736 9.23243 15.196 9.86453C15.6183 10.4966 15.8438 11.2398 15.8438 12C15.8444 12.5049 15.7454 13.005 15.5524 13.4717C15.3595 13.9383 15.0764 14.3623 14.7193 14.7193C14.3623 15.0764 13.9383 15.3595 13.4717 15.5524C13.005 15.7454 12.5049 15.8444 12 15.8438ZM10.6112 9.92152C11.0222 9.64667 11.5055 9.49987 12 9.49969C12.6631 9.49994 13.2991 9.76341 13.768 10.2322C14.237 10.701 14.5008 11.3369 14.5012 12C14.5012 12.4945 14.3546 12.9778 14.0799 13.389C13.8052 13.8002 13.4148 14.1206 12.958 14.3099C12.5012 14.4992 11.9985 14.5487 11.5135 14.4523C11.0285 14.3559 10.583 14.1179 10.2333 13.7683C9.88357 13.4187 9.64536 12.9733 9.54878 12.4884C9.4522 12.0034 9.50158 11.5007 9.69068 11.0438C9.87978 10.5869 10.2001 10.1964 10.6112 9.92152Z" fill="#1B2125"/>
<path d="M16.0022 8.89219C15.8247 8.89228 15.6512 8.83974 15.5036 8.74121C15.356 8.64268 15.2409 8.5026 15.173 8.33866C15.105 8.17473 15.0871 7.99432 15.1217 7.82026C15.1563 7.64619 15.2417 7.48628 15.3671 7.36076C15.4926 7.23524 15.6525 7.14974 15.8265 7.11509C16.0006 7.08043 16.181 7.09817 16.3449 7.16606C16.5089 7.23395 16.6491 7.34895 16.7477 7.4965C16.8463 7.64405 16.8989 7.81753 16.8989 7.995C16.8994 8.11285 16.8766 8.22964 16.8319 8.33866C16.7871 8.44769 16.7213 8.54681 16.6382 8.63034C16.555 8.71387 16.4562 8.78016 16.3474 8.82542C16.2386 8.87067 16.1219 8.894 16.0041 8.89406L16.0022 8.89219Z" fill="#1B2125"/>
<path fill-rule="evenodd" clip-rule="evenodd" d="M19.4475 15.0938C19.387 16.2952 19.1128 17.3597 18.2358 18.2344C17.3587 19.1091 16.2952 19.3889 15.0952 19.4461C13.8572 19.5159 10.1456 19.5159 8.90766 19.4461C7.70625 19.3856 6.64547 19.1109 5.76703 18.2344C4.88859 17.3578 4.6125 16.2928 4.55531 15.0938C4.48547 13.8553 4.48547 10.1433 4.55531 8.90625C4.61578 7.70484 4.88672 6.64031 5.76703 5.76562C6.64734 4.89094 7.71094 4.61438 8.90766 4.55719C10.1456 4.48734 13.8572 4.48734 15.0952 4.55719C16.2966 4.61766 17.3606 4.89234 18.2358 5.76891C19.1109 6.64547 19.3903 7.71047 19.4475 8.91187C19.5173 10.1456 19.5173 13.8544 19.4475 15.0938ZM17.2811 6.71705C17.5263 6.96226 17.7185 7.25524 17.8458 7.57781L17.8477 7.57828C18.1835 8.42572 18.1649 10.2708 18.1529 11.467C18.1509 11.6649 18.1491 11.8451 18.1491 12C18.1491 12.1549 18.1509 12.3351 18.1529 12.5331C18.1649 13.7299 18.1835 15.5771 17.8477 16.4217C17.7204 16.7443 17.5282 17.0373 17.283 17.2825C17.0377 17.5277 16.7448 17.7199 16.4222 17.8472C15.5756 18.1833 13.7337 18.1646 12.5371 18.1524C12.3384 18.1504 12.1575 18.1486 12.0019 18.1486C11.8492 18.1486 11.6721 18.1503 11.4777 18.1522C10.2807 18.1637 8.42792 18.1815 7.58109 17.8472C7.25852 17.7199 6.96554 17.5277 6.72033 17.2825C6.47512 17.0373 6.28291 16.7443 6.15562 16.4217C5.81979 15.5712 5.83745 13.7155 5.84884 12.5196C5.85067 12.3268 5.85234 12.1511 5.85234 11.9995C5.85234 11.8475 5.85066 11.6712 5.84881 11.4775C5.8374 10.2811 5.81969 8.42507 6.15375 7.57781C6.28104 7.25524 6.47325 6.96226 6.71846 6.71705C6.96367 6.47184 7.25664 6.27963 7.57922 6.15234C8.42585 5.81627 10.2685 5.83495 11.465 5.84709C11.6637 5.8491 11.8445 5.85094 12 5.85094C12.1526 5.85094 12.3296 5.84924 12.524 5.84737C13.7206 5.83586 15.5735 5.81805 16.4203 6.15234C16.7429 6.27963 17.0359 6.47184 17.2811 6.71705Z" fill="#1B2125"/>
<path d="M12 9.49969C11.5055 9.49987 11.0222 9.64667 10.6112 9.92152C10.2001 10.1964 9.87978 10.5869 9.69068 11.0438C9.50158 11.5007 9.4522 12.0034 9.54878 12.4884C9.64536 12.9733 9.88357 13.4187 10.2333 13.7683C10.583 14.1179 11.0285 14.3559 11.5135 14.4523C11.9985 14.5487 12.5012 14.4992 12.958 14.3099C13.4148 14.1206 13.8052 13.8002 14.0799 13.389C14.3546 12.9778 14.5012 12.4945 14.5012 12C14.5008 11.3369 14.237 10.701 13.768 10.2322C13.2991 9.76341 12.6631 9.49994 12 9.49969ZM17.8458 7.57781C17.7185 7.25524 17.5263 6.96226 17.2811 6.71705C17.0359 6.47184 16.7429 6.27963 16.4203 6.15234C15.4359 5.76375 13.0922 5.85094 12 5.85094C10.9078 5.85094 8.56641 5.76047 7.57922 6.15234C7.25664 6.27963 6.96367 6.47184 6.71846 6.71705C6.47325 6.96226 6.28104 7.25524 6.15375 7.57781C5.76562 8.56219 5.85234 10.9083 5.85234 11.9995C5.85234 13.0908 5.76562 15.4341 6.15562 16.4217C6.28291 16.7443 6.47512 17.0373 6.72033 17.2825C6.96554 17.5277 7.25852 17.7199 7.58109 17.8472C8.56547 18.2358 10.9092 18.1486 12.0019 18.1486C13.0945 18.1486 15.435 18.2391 16.4222 17.8472C16.7448 17.7199 17.0377 17.5277 17.283 17.2825C17.5282 17.0373 17.7204 16.7443 17.8477 16.4217C18.2391 15.4373 18.1491 13.0913 18.1491 12C18.1491 10.9087 18.2391 8.56594 17.8477 7.57828L17.8458 7.57781ZM12 15.8438C11.2398 15.8438 10.4966 15.6183 9.86453 15.196C9.23243 14.7736 8.73976 14.1733 8.44884 13.4709C8.15791 12.7686 8.08179 11.9957 8.23011 11.2501C8.37842 10.5045 8.7445 9.81962 9.28206 9.28206C9.81962 8.7445 10.5045 8.37842 11.2501 8.23011C11.9957 8.08179 12.7686 8.15791 13.4709 8.44884C14.1733 8.73976 14.7736 9.23243 15.196 9.86453C15.6183 10.4966 15.8438 11.2398 15.8438 12C15.8444 12.5049 15.7454 13.005 15.5524 13.4717C15.3595 13.9383 15.0764 14.3623 14.7193 14.7193C14.3623 15.0764 13.9383 15.3595 13.4717 15.5524C13.005 15.7454 12.5049 15.8444 12 15.8438ZM16.0022 8.89219C15.8247 8.89228 15.6512 8.83974 15.5036 8.74121C15.356 8.64268 15.2409 8.5026 15.173 8.33866C15.105 8.17473 15.0871 7.99432 15.1217 7.82026C15.1563 7.64619 15.2417 7.48628 15.3671 7.36076C15.4926 7.23524 15.6525 7.14974 15.8265 7.11509C16.0006 7.08043 16.181 7.09817 16.3449 7.16606C16.5089 7.23395 16.6491 7.34895 16.7477 7.4965C16.8463 7.64405 16.8989 7.81753 16.8989 7.995C16.8994 8.11285 16.8766 8.22964 16.8319 8.33866C16.7871 8.44769 16.7213 8.54681 16.6382 8.63034C16.555 8.71387 16.4562 8.78016 16.3474 8.82542C16.2386 8.87067 16.1219 8.894 16.0041 8.89406L16.0022 8.89219ZM20.25 1.5H3.75C3.15326 1.5 2.58097 1.73705 2.15901 2.15901C1.73705 2.58097 1.5 3.15326 1.5 3.75L1.5 20.25C1.5 20.8467 1.73705 21.419 2.15901 21.841C2.58097 22.2629 3.15326 22.5 3.75 22.5H20.25C20.8467 22.5 21.419 22.2629 21.841 21.841C22.2629 21.419 22.5 20.8467 22.5 20.25V3.75C22.5 3.15326 22.2629 2.58097 21.841 2.15901C21.419 1.73705 20.8467 1.5 20.25 1.5ZM19.4475 15.0938C19.387 16.2952 19.1128 17.3597 18.2358 18.2344C17.3588 19.1091 16.2952 19.3889 15.0952 19.4461C13.8572 19.5159 10.1456 19.5159 8.90766 19.4461C7.70625 19.3856 6.64547 19.1109 5.76703 18.2344C4.88859 17.3578 4.6125 16.2928 4.55531 15.0938C4.48547 13.8553 4.48547 10.1433 4.55531 8.90625C4.61578 7.70484 4.88672 6.64031 5.76703 5.76562C6.64734 4.89094 7.71094 4.61438 8.90766 4.55719C10.1456 4.48734 13.8572 4.48734 15.0952 4.55719C16.2966 4.61766 17.3606 4.89234 18.2358 5.76891C19.1109 6.64547 19.3903 7.71047 19.4475 8.91187C19.5173 10.1456 19.5173 13.8544 19.4475 15.0938Z" fill="#C6C6C8"/>
</svg>
