<svg width="203" height="35" viewBox="0 0 203 35" fill="none" xmlns="http://www.w3.org/2000/svg">
<g clip-path="url(#clip0_1_15)">
<path d="M4.92187 12.5783C2.2036 12.5783 9.63224e-08 14.7819 2.15142e-07 17.5001V17.5001C3.33962e-07 20.2184 2.2036 22.422 4.92188 22.422L19.1406 22.422C21.8589 22.422 24.0625 20.2184 24.0625 17.5001V17.5001C24.0625 14.7818 21.8589 12.5783 19.1406 12.5783L4.92187 12.5783Z" fill="url(#paint0_linear_1_15)"/>
<path opacity="0.8" d="M17.5001 0C13.5737 0 10.3907 3.18298 10.3907 7.10938V17.4705C10.3907 17.4803 10.3907 17.4901 10.3907 17.4999C10.3907 17.5097 10.3907 17.5195 10.3907 17.5293V27.8906C10.3907 31.817 13.5737 35 17.5001 35C21.4265 35 24.6095 31.817 24.6095 27.8906V24.6093H27.8907C31.8171 24.6093 35 21.4263 35 17.4999C35 13.5735 31.8171 10.3905 27.8907 10.3905H24.6095V7.10938C24.6095 3.18298 21.4265 0 17.5001 0Z" fill="url(#paint1_linear_1_15)"/>
</g>
<path d="M57 14.6502L58.3969 0.596229H61.3269L64.6828 9.38636L68.0388 0.596229H70.9688L72.3657 14.6502H69.606L68.7372 5.55345L65.5261 14.301H63.8311L60.6285 5.55345L59.7512 14.6502H57Z" fill="#1B2125"/>
<path d="M80.1251 14.9228C79.1655 14.9228 78.2995 14.7269 77.5273 14.3351C76.755 13.9376 76.1417 13.3925 75.6875 12.6997C75.2332 12.0012 75.0061 11.1978 75.0061 10.2892C75.0061 9.38068 75.2303 8.58003 75.6789 7.88726C76.1332 7.18882 76.7465 6.6437 77.5187 6.25189C78.2967 5.85441 79.1655 5.65566 80.1251 5.65566C81.0904 5.65566 81.9592 5.85441 82.7315 6.25189C83.5037 6.6437 84.1142 7.18882 84.5628 7.88726C85.017 8.58003 85.2442 9.38068 85.2442 10.2892C85.2442 11.1978 85.017 12.0012 84.5628 12.6997C84.1142 13.3925 83.5037 13.9376 82.7315 14.3351C81.9592 14.7269 81.0904 14.9228 80.1251 14.9228ZM80.1336 12.6912C80.5765 12.6912 80.9797 12.589 81.3431 12.3845C81.7065 12.1801 81.9933 11.899 82.2034 11.5413C82.4135 11.1779 82.5185 10.7605 82.5185 10.2892C82.5185 9.81791 82.4135 9.40339 82.2034 9.04565C81.9933 8.68224 81.7065 8.39832 81.3431 8.1939C80.9797 7.98948 80.5765 7.88726 80.1336 7.88726C79.685 7.88726 79.279 7.98948 78.9156 8.1939C78.5579 8.39832 78.274 8.68224 78.0639 9.04565C77.8538 9.40339 77.7487 9.81791 77.7487 10.2892C77.7487 10.7605 77.8538 11.1779 78.0639 11.5413C78.274 11.899 78.5579 12.1801 78.9156 12.3845C79.279 12.589 79.685 12.6912 80.1336 12.6912Z" fill="#1B2125"/>
<path d="M91.7792 14.9228C90.9899 14.9228 90.2687 14.7269 89.6157 14.3351C88.9684 13.9376 88.4517 13.3896 88.0655 12.6912C87.6794 11.9927 87.4863 11.1921 87.4863 10.2892C87.4863 9.40339 87.6737 8.6141 88.0485 7.92133C88.4233 7.22289 88.9372 6.67209 89.5902 6.26893C90.2489 5.86008 91.0013 5.65566 91.8473 5.65566C92.4606 5.65566 93.0284 5.77491 93.5508 6.0134C94.0733 6.24621 94.5076 6.57272 94.854 6.99292V0H97.4689V14.6502H94.854V13.5003C94.4679 13.9489 94.0108 14.2982 93.4827 14.548C92.9546 14.7978 92.3868 14.9228 91.7792 14.9228ZM92.5628 12.6997C93.0228 12.6997 93.4288 12.5975 93.7808 12.3931C94.1329 12.183 94.4083 11.8962 94.607 11.5328C94.8114 11.1694 94.9137 10.7577 94.9137 10.2977C94.9137 9.83211 94.8114 9.41759 94.607 9.05417C94.4083 8.69075 94.1329 8.404 93.7808 8.1939C93.4288 7.9838 93.0256 7.87875 92.5713 7.87875C92.1227 7.87875 91.7224 7.9838 91.3703 8.1939C91.024 8.404 90.7486 8.69359 90.5441 9.06269C90.3397 9.4261 90.2375 9.84062 90.2375 10.3063C90.2375 10.7662 90.3369 11.1779 90.5356 11.5413C90.7344 11.899 91.0098 12.183 91.3618 12.3931C91.7139 12.5975 92.1142 12.6997 92.5628 12.6997Z" fill="#1B2125"/>
<path d="M105.344 14.9228C104.401 14.9228 103.555 14.7212 102.806 14.318C102.062 13.9092 101.471 13.3555 101.034 12.6571C100.597 11.9587 100.378 11.1694 100.378 10.2892C100.378 9.64188 100.5 9.03714 100.744 8.47498C100.994 7.91282 101.341 7.42164 101.784 7.00144C102.226 6.57556 102.74 6.24621 103.325 6.0134C103.91 5.77491 104.543 5.65566 105.225 5.65566C106.133 5.65566 106.928 5.84589 107.61 6.22634C108.297 6.60111 108.83 7.12352 109.211 7.79357C109.597 8.46362 109.79 9.2444 109.79 10.1359C109.79 10.2097 109.787 10.275 109.782 10.3318C109.782 10.3829 109.773 10.4823 109.756 10.6299H103.07C103.07 11.0728 103.169 11.459 103.368 11.7883C103.572 12.1177 103.856 12.376 104.22 12.5634C104.583 12.7451 105.006 12.836 105.489 12.836C105.943 12.836 106.343 12.748 106.69 12.5719C107.042 12.3959 107.38 12.1148 107.703 11.7287L109.586 12.6741C109.177 13.3783 108.598 13.9291 107.848 14.3265C107.098 14.724 106.264 14.9228 105.344 14.9228ZM103.163 9.18193H107.218C107.161 8.84691 107.039 8.55731 106.851 8.31314C106.67 8.06897 106.437 7.88159 106.153 7.75098C105.869 7.62038 105.548 7.55508 105.191 7.55508C104.81 7.55508 104.475 7.62038 104.185 7.75098C103.896 7.88159 103.663 8.06897 103.487 8.31314C103.311 8.55731 103.203 8.84691 103.163 9.18193Z" fill="#1B2125"/>
<path d="M112.725 14.6502V5.92822H115.34V7.18031C115.663 6.69197 116.058 6.31719 116.523 6.05599C116.995 5.7891 117.5 5.65566 118.04 5.65566C118.346 5.65566 118.664 5.70109 118.994 5.79194C119.323 5.8828 119.598 5.9992 119.82 6.14116L118.73 8.34721C118.536 8.21661 118.309 8.1144 118.048 8.04058C117.793 7.96108 117.554 7.92133 117.333 7.92133C116.992 7.92133 116.668 8.00935 116.362 8.18538C116.055 8.36141 115.808 8.59138 115.621 8.8753C115.433 9.15354 115.34 9.4545 115.34 9.77816V14.6502H112.725Z" fill="#1B2125"/>
<path d="M121.884 14.6502V5.92822H124.499V6.89923C124.834 6.52445 125.251 6.2235 125.751 5.99636C126.256 5.76923 126.813 5.65566 127.42 5.65566C128.09 5.65566 128.678 5.8033 129.183 6.09858C129.694 6.38817 130.095 6.79418 130.384 7.31659C130.674 7.83332 130.819 8.43807 130.819 9.13083V14.6502H128.204V9.68447C128.204 9.05985 128.039 8.57435 127.71 8.22797C127.386 7.87591 126.94 7.69988 126.373 7.69988C125.987 7.69988 125.651 7.77938 125.368 7.93837C125.089 8.09169 124.874 8.30462 124.72 8.57719C124.573 8.84407 124.499 9.14786 124.499 9.48857V14.6502H121.884Z" fill="#1B2125"/>
<path d="M129.265 34.7273V20.6733H137.161V23.0923H131.36L132.024 22.4876V27.2404L131.36 26.4738H136.777V28.8928H131.36L132.024 28.1262V34.7273H129.265Z" fill="#1B2125"/>
<path d="M140.17 34.7273V26.0053H142.785V34.7273H140.17ZM141.482 24.1911C141.198 24.1911 140.937 24.123 140.698 23.9867C140.465 23.8447 140.278 23.6545 140.136 23.416C139.994 23.1775 139.923 22.9163 139.923 22.6324C139.923 22.3485 139.994 22.0901 140.136 21.8573C140.278 21.6245 140.465 21.4399 140.698 21.3036C140.937 21.1617 141.198 21.0907 141.482 21.0907C141.766 21.0907 142.024 21.1617 142.257 21.3036C142.49 21.4399 142.674 21.6245 142.811 21.8573C142.952 22.0901 143.023 22.3485 143.023 22.6324C143.023 22.9163 142.952 23.1775 142.811 23.416C142.674 23.6545 142.49 23.8447 142.257 23.9867C142.024 24.123 141.766 24.1911 141.482 24.1911Z" fill="#1B2125"/>
<path d="M146.476 34.7273V26.0053H149.091V26.9763C149.426 26.6016 149.844 26.3006 150.343 26.0735C150.849 25.8463 151.405 25.7328 152.013 25.7328C152.683 25.7328 153.271 25.8804 153.776 26.1757C154.287 26.4653 154.687 26.8713 154.977 27.3937C155.267 27.9104 155.411 28.5152 155.411 29.2079V34.7273H152.796V29.7616C152.796 29.137 152.632 28.6515 152.302 28.3051C151.979 27.953 151.533 27.777 150.965 27.777C150.579 27.777 150.244 27.8565 149.96 28.0155C149.682 28.1688 149.466 28.3817 149.313 28.6543C149.165 28.9212 149.091 29.225 149.091 29.5657V34.7273H146.476Z" fill="#1B2125"/>
<path d="M162.567 34.9999C161.766 34.9999 161.036 34.8011 160.378 34.4037C159.725 34.0005 159.205 33.4497 158.819 32.7513C158.438 32.0471 158.248 31.2465 158.248 30.3493C158.248 29.4748 158.433 28.6912 158.802 27.9984C159.171 27.3 159.679 26.7492 160.326 26.346C160.979 25.9372 161.726 25.7328 162.567 25.7328C163.186 25.7328 163.762 25.852 164.296 26.0905C164.835 26.3233 165.275 26.6498 165.616 27.07V26.0053H168.231V34.7273H165.616V33.5775C165.218 34.0374 164.761 34.3895 164.245 34.6336C163.728 34.8778 163.168 34.9999 162.567 34.9999ZM163.342 32.7768C163.796 32.7768 164.199 32.6746 164.551 32.4702C164.903 32.2601 165.179 31.9733 165.377 31.6099C165.576 31.2465 165.675 30.832 165.675 30.3663C165.675 29.895 165.573 29.4805 165.369 29.1228C165.17 28.7594 164.895 28.4754 164.543 28.271C164.196 28.0609 163.796 27.9559 163.342 27.9559C162.893 27.9559 162.493 28.0609 162.141 28.271C161.789 28.4754 161.51 28.7594 161.306 29.1228C161.102 29.4862 160.999 29.9007 160.999 30.3663C160.999 30.832 161.099 31.2465 161.297 31.6099C161.502 31.9733 161.78 32.2601 162.132 32.4702C162.484 32.6746 162.887 32.7768 163.342 32.7768Z" fill="#1B2125"/>
<path d="M171.915 34.7273V26.0053H174.53V26.9763C174.865 26.6016 175.282 26.3006 175.782 26.0735C176.287 25.8463 176.844 25.7328 177.451 25.7328C178.122 25.7328 178.709 25.8804 179.215 26.1757C179.726 26.4653 180.126 26.8713 180.416 27.3937C180.705 27.9104 180.85 28.5152 180.85 29.2079V34.7273H178.235V29.7616C178.235 29.137 178.07 28.6515 177.741 28.3051C177.417 27.953 176.972 27.777 176.404 27.777C176.018 27.777 175.683 27.8565 175.399 28.0155C175.121 28.1688 174.905 28.3817 174.751 28.6543C174.604 28.9212 174.53 29.225 174.53 29.5657V34.7273H171.915Z" fill="#1B2125"/>
<path d="M188.448 34.9999C187.784 34.9999 187.156 34.8806 186.566 34.6422C185.981 34.4037 185.464 34.0743 185.016 33.6541C184.567 33.2282 184.215 32.7371 183.959 32.1806C183.704 31.6184 183.576 31.0165 183.576 30.3749C183.576 29.7559 183.695 29.1682 183.934 28.6117C184.178 28.0552 184.519 27.5612 184.956 27.1297C185.399 26.6981 185.916 26.3574 186.506 26.1076C187.102 25.8577 187.747 25.7328 188.44 25.7328C189.002 25.7328 189.541 25.8123 190.058 25.9713C190.58 26.1303 191.001 26.3347 191.319 26.5845L190.424 28.3477C189.998 28.0354 189.47 27.8792 188.84 27.8792C188.3 27.8792 187.843 27.9985 187.469 28.2369C187.094 28.4754 186.807 28.7849 186.608 29.1654C186.415 29.5458 186.319 29.9461 186.319 30.3663C186.319 30.8263 186.424 31.2465 186.634 31.6269C186.844 32.0017 187.139 32.2998 187.52 32.5213C187.906 32.7427 188.352 32.8535 188.857 32.8535C189.169 32.8535 189.462 32.8109 189.734 32.7257C190.007 32.6405 190.237 32.527 190.424 32.385L191.319 34.1481C190.995 34.3923 190.577 34.5939 190.066 34.7529C189.555 34.9176 189.016 34.9999 188.448 34.9999Z" fill="#1B2125"/>
<path d="M198.234 34.9999C197.291 34.9999 196.445 34.7983 195.696 34.3951C194.952 33.9863 194.361 33.4327 193.924 32.7342C193.487 32.0358 193.268 31.2465 193.268 30.3663C193.268 29.719 193.39 29.1143 193.634 28.5521C193.884 27.9899 194.231 27.4988 194.673 27.0786C195.116 26.6527 195.63 26.3233 196.215 26.0905C196.8 25.852 197.433 25.7328 198.115 25.7328C199.023 25.7328 199.818 25.923 200.499 26.3035C201.187 26.6782 201.72 27.2006 202.101 27.8707C202.487 28.5407 202.68 29.3215 202.68 30.213C202.68 30.2868 202.677 30.3521 202.671 30.4089C202.671 30.46 202.663 30.5594 202.646 30.707H195.96C195.96 31.1499 196.059 31.5361 196.258 31.8654C196.462 32.1948 196.746 32.4531 197.109 32.6405C197.473 32.8222 197.896 32.9131 198.379 32.9131C198.833 32.9131 199.233 32.8251 199.58 32.649C199.932 32.473 200.269 32.1919 200.593 31.8058L202.476 32.7513C202.067 33.4554 201.487 34.0062 200.738 34.4037C199.988 34.8011 199.154 34.9999 198.234 34.9999ZM196.053 29.2591H200.108C200.051 28.924 199.929 28.6344 199.741 28.3903C199.56 28.1461 199.327 27.9587 199.043 27.8281C198.759 27.6975 198.438 27.6322 198.08 27.6322C197.7 27.6322 197.365 27.6975 197.075 27.8281C196.786 27.9587 196.553 28.1461 196.377 28.3903C196.201 28.6344 196.093 28.924 196.053 29.2591Z" fill="#1B2125"/>
<path d="M57.6476 34.7276V20.6736H60.4073V26.4741H65.6626V20.6736H68.4138V34.7276H65.6626V28.8931H60.4073V34.7276H57.6476Z" fill="#70A54A"/>
<path d="M76.6782 35.0002C75.7355 35.0002 74.8895 34.7986 74.1399 34.3954C73.3961 33.9866 72.8055 33.4329 72.3683 32.7345C71.931 32.036 71.7124 31.2467 71.7124 30.3666C71.7124 29.7193 71.8345 29.1145 72.0787 28.5524C72.3285 27.9902 72.6749 27.499 73.1178 27.0788C73.5607 26.6529 74.0746 26.3236 74.6595 26.0908C75.2444 25.8523 75.8775 25.733 76.5589 25.733C77.4675 25.733 78.2624 25.9233 78.9438 26.3037C79.6309 26.6785 80.1647 27.2009 80.5451 27.8709C80.9313 28.541 81.1243 29.3218 81.1243 30.2133C81.1243 30.2871 81.1215 30.3524 81.1158 30.4092C81.1158 30.4603 81.1073 30.5597 81.0903 30.7073H74.404C74.404 31.1502 74.5033 31.5363 74.7021 31.8657C74.9065 32.195 75.1904 32.4534 75.5538 32.6408C75.9173 32.8225 76.3403 32.9133 76.823 32.9133C77.2772 32.9133 77.6776 32.8253 78.0239 32.6493C78.376 32.4733 78.7139 32.1922 79.0375 31.8061L80.9199 32.7515C80.5111 33.4556 79.9319 34.0064 79.1823 34.4039C78.4328 34.8014 77.5981 35.0002 76.6782 35.0002ZM74.4977 29.2593H78.552C78.4952 28.9243 78.3732 28.6347 78.1858 28.3905C78.0041 28.1464 77.7712 27.959 77.4873 27.8284C77.2034 27.6978 76.8826 27.6325 76.5248 27.6325C76.1444 27.6325 75.8094 27.6978 75.5198 27.8284C75.2302 27.959 74.9974 28.1464 74.8213 28.3905C74.6453 28.6347 74.5374 28.9243 74.4977 29.2593Z" fill="#70A54A"/>
<path d="M87.646 35.0002C86.8454 35.0002 86.1157 34.8014 85.457 34.4039C84.804 34.0008 84.2844 33.45 83.8983 32.7515C83.5179 32.0474 83.3276 31.2467 83.3276 30.3496C83.3276 29.4751 83.5122 28.6915 83.8813 27.9987C84.2504 27.3003 84.7586 26.7495 85.4059 26.3463C86.0589 25.9375 86.8056 25.733 87.646 25.733C88.265 25.733 88.8413 25.8523 89.3751 26.0908C89.9146 26.3236 90.3546 26.6501 90.6953 27.0703V26.0056H93.3102V34.7276H90.6953V33.5777C90.2978 34.0377 89.8407 34.3897 89.324 34.6339C88.8073 34.8781 88.248 35.0002 87.646 35.0002ZM88.4211 32.7771C88.8754 32.7771 89.2786 32.6749 89.6306 32.4704C89.9827 32.2603 90.2581 31.9736 90.4568 31.6102C90.6556 31.2467 90.755 30.8322 90.755 30.3666C90.755 29.8953 90.6527 29.4808 90.4483 29.123C90.2496 28.7596 89.9742 28.4757 89.6221 28.2713C89.2757 28.0612 88.8754 27.9561 88.4211 27.9561C87.9726 27.9561 87.5722 28.0612 87.2202 28.2713C86.8681 28.4757 86.5899 28.7596 86.3854 29.123C86.181 29.4864 86.0788 29.901 86.0788 30.3666C86.0788 30.8322 86.1782 31.2467 86.3769 31.6102C86.5813 31.9736 86.8596 32.2603 87.2116 32.4704C87.5637 32.6749 87.9669 32.7771 88.4211 32.7771Z" fill="#70A54A"/>
<path d="M96.9945 34.7276V20.0774H99.6094V34.7276H96.9945Z" fill="#70A54A"/>
<path d="M106.299 35.0002C105.43 35.0002 104.755 34.7248 104.272 34.1739C103.789 33.6175 103.548 32.8424 103.548 31.8487V27.9902H102.381V26.0056H103.548V22.7349H106.163V26.0056H108.079V27.9902H106.163V31.6613C106.163 31.9906 106.228 32.2405 106.359 32.4108C106.495 32.5812 106.685 32.6663 106.929 32.6663C107.202 32.6663 107.463 32.5755 107.713 32.3938L108.369 34.4891C108.074 34.6481 107.741 34.773 107.372 34.8639C107.009 34.9547 106.651 35.0002 106.299 35.0002Z" fill="#70A54A"/>
<path d="M111.237 34.7276V20.0774H113.852V26.9766C114.187 26.6018 114.604 26.3009 115.104 26.0737C115.61 25.8466 116.166 25.733 116.774 25.733C117.444 25.733 118.031 25.8807 118.537 26.176C119.048 26.4656 119.448 26.8716 119.738 27.394C120.027 27.9107 120.172 28.5154 120.172 29.2082V34.7276H117.557V29.7619C117.557 29.1372 117.393 28.6517 117.063 28.3053C116.74 27.9533 116.294 27.7773 115.726 27.7773C115.34 27.7773 115.005 27.8568 114.721 28.0157C114.443 28.1691 114.227 28.382 114.074 28.6546C113.926 28.9214 113.852 29.2252 113.852 29.5659V34.7276H111.237Z" fill="#70A54A"/>
<defs>
<linearGradient id="paint0_linear_1_15" x1="2.15142e-07" y1="17.5001" x2="24.0625" y2="17.5001" gradientUnits="userSpaceOnUse">
<stop stop-color="#F59E0B"/>
<stop offset="1" stop-color="#FBD99D"/>
</linearGradient>
<linearGradient id="paint1_linear_1_15" x1="22.6953" y1="0" x2="22.6953" y2="35" gradientUnits="userSpaceOnUse">
<stop stop-color="#A6CB8B"/>
<stop offset="1" stop-color="#58823A"/>
</linearGradient>
<clipPath id="clip0_1_15">
<rect width="35" height="35" fill="white"/>
</clipPath>
</defs>
</svg>
