<svg width="32" height="32" viewBox="0 0 32 32" fill="none" xmlns="http://www.w3.org/2000/svg">
<path d="M24.1 2.07208L29.664 7.87208V29.9281H8.87903V30.0001H29.735V7.94508L24.1 2.07208Z" fill="#909090"/>
<path d="M24.0311 2H8.80811V29.928H29.6641V7.873L24.0301 2" fill="#F4F4F4"/>
<path d="M8.65514 3.5H2.26514V10.327H22.3651V3.5H8.65514Z" fill="#7A7B7C"/>
<path d="M22.4721 10.211H2.39514V3.37903H22.4721V10.211Z" fill="#DD2025"/>
<path d="M9.05187 4.53394H7.74487V9.33394H8.77287V7.71494L8.99987 7.72794C9.22044 7.72414 9.43894 7.68463 9.64687 7.61094C9.82918 7.54823 9.99688 7.44924 10.1399 7.31994C10.2854 7.19676 10.4001 7.04129 10.4749 6.86594C10.5752 6.57443 10.611 6.26463 10.5799 5.95794C10.5736 5.73884 10.5352 5.52186 10.4659 5.31394C10.4027 5.16384 10.3091 5.02854 10.1908 4.91663C10.0725 4.80472 9.93223 4.71866 9.77887 4.66394C9.64628 4.61593 9.50929 4.5811 9.36987 4.55994C9.2643 4.54365 9.15769 4.53496 9.05087 4.53394H9.05187ZM8.86187 6.82794H8.77287V5.34794H8.96587C9.05105 5.34179 9.13652 5.35487 9.21597 5.3862C9.29542 5.41753 9.36681 5.46631 9.42487 5.52894C9.54519 5.68995 9.60947 5.88594 9.60787 6.08694C9.60787 6.33294 9.60787 6.55594 9.38587 6.71294C9.22594 6.8009 9.0439 6.8405 8.86187 6.82694" fill="#464648"/>
<path d="M12.5332 4.52094C12.4222 4.52094 12.3142 4.52894 12.2382 4.53194L12.0002 4.53794H11.2202V9.33794H12.1382C12.489 9.34756 12.8383 9.2881 13.1662 9.16294C13.4301 9.05826 13.6638 8.88952 13.8462 8.67194C14.0236 8.4524 14.1509 8.19678 14.2192 7.92294C14.2978 7.61281 14.3361 7.29386 14.3332 6.97394C14.3526 6.5961 14.3234 6.21733 14.2462 5.84694C14.173 5.5743 14.0359 5.32303 13.8462 5.11394C13.6974 4.9451 13.5152 4.80891 13.3112 4.71394C13.136 4.63286 12.9517 4.5731 12.7622 4.53594C12.6869 4.52349 12.6106 4.51781 12.5342 4.51894L12.5332 4.52094ZM12.3522 8.45594H12.2522V5.39194H12.2652C12.4714 5.36822 12.68 5.40542 12.8652 5.49894C13.0009 5.60727 13.1114 5.74374 13.1892 5.89894C13.2732 6.06228 13.3216 6.24155 13.3312 6.42494C13.3402 6.64494 13.3312 6.82494 13.3312 6.97394C13.3353 7.14558 13.3242 7.31724 13.2982 7.48694C13.2674 7.66117 13.2104 7.82974 13.1292 7.98694C13.0373 8.1331 12.9131 8.25625 12.7662 8.34694C12.6428 8.42674 12.4967 8.46397 12.3502 8.45294" fill="#464648"/>
<path d="M17.43 4.53798H15V9.33798H16.028V7.43398H17.328V6.54198H16.028V5.42998H17.428V4.53798" fill="#464648"/>
<path d="M21.7811 20.255C21.7811 20.255 24.9691 19.677 24.9691 20.766C24.9691 21.855 22.9941 21.412 21.7811 20.255ZM19.4241 20.338C18.9176 20.4499 18.424 20.6138 17.9511 20.827L18.3511 19.927C18.7511 19.027 19.1661 17.8 19.1661 17.8C19.6434 18.6033 20.1988 19.3576 20.8241 20.052C20.3525 20.1223 19.8852 20.2185 19.4241 20.34V20.338ZM18.1621 13.838C18.1621 12.889 18.4691 12.63 18.7081 12.63C18.9471 12.63 19.2161 12.745 19.2251 13.569C19.1473 14.3976 18.9738 15.2143 18.7081 16.003C18.3442 15.3408 18.1559 14.5965 18.1611 13.841L18.1621 13.838ZM13.5131 24.354C12.5351 23.769 15.5641 21.968 16.1131 21.91C16.1101 21.911 14.5371 24.966 13.5131 24.354V24.354ZM25.9001 20.895C25.8901 20.795 25.8001 19.688 23.8301 19.735C23.009 19.7218 22.1883 19.7796 21.3771 19.908C20.5914 19.1164 19.9147 18.2235 19.3651 17.253C19.7114 16.2524 19.921 15.2097 19.9881 14.153C19.9591 12.953 19.6721 12.265 18.7521 12.275C17.8321 12.285 17.6981 13.09 17.8191 14.288C17.9376 15.093 18.1612 15.8791 18.4841 16.626C18.4841 16.626 18.0591 17.949 17.4971 19.265C16.9351 20.581 16.5511 21.271 16.5511 21.271C15.5738 21.5891 14.6539 22.0618 13.8261 22.671C13.0021 23.438 12.6671 24.027 13.1011 24.616C13.4751 25.124 14.7841 25.239 15.9541 23.706C16.5758 22.9142 17.1437 22.0817 17.6541 21.214C17.6541 21.214 19.4381 20.725 19.9931 20.591C20.5481 20.457 21.2191 20.351 21.2191 20.351C21.2191 20.351 22.8481 21.99 24.4191 21.932C25.9901 21.874 25.9141 20.993 25.9041 20.897" fill="#DD2025"/>
<path d="M23.9541 2.07695V7.94995H29.5871L23.9541 2.07695Z" fill="#909090"/>
<path d="M24.0309 2V7.873H29.6639L24.0309 2Z" fill="#F4F4F4"/>
<path d="M8.97503 4.45699H7.66803V9.25699H8.70003V7.63899L8.92803 7.65199C9.1486 7.64819 9.3671 7.60868 9.57503 7.53499C9.75732 7.47226 9.92502 7.37327 10.068 7.24399C10.2124 7.12047 10.3261 6.96504 10.4 6.78999C10.5003 6.49848 10.5361 6.18868 10.505 5.88199C10.4988 5.66289 10.4604 5.44591 10.391 5.23799C10.3279 5.08789 10.2342 4.95259 10.1159 4.84068C9.99766 4.72877 9.85738 4.64271 9.70403 4.58799C9.57083 4.53952 9.43316 4.50435 9.29303 4.48299C9.18746 4.4667 9.08085 4.45801 8.97403 4.45699H8.97503ZM8.78503 6.75099H8.69603V5.27099H8.89003C8.97521 5.26484 9.06068 5.27792 9.14013 5.30925C9.21958 5.34058 9.29097 5.38936 9.34903 5.45199C9.46935 5.613 9.53362 5.80899 9.53203 6.00999C9.53203 6.25599 9.53203 6.47899 9.31003 6.63599C9.1501 6.72395 8.96805 6.76355 8.78603 6.74999" fill="white"/>
<path d="M12.4559 4.44399C12.3449 4.44399 12.2369 4.45199 12.1609 4.45499L11.9259 4.46099H11.1459V9.26099H12.0639C12.4148 9.27061 12.7641 9.21115 13.0919 9.08599C13.3558 8.98131 13.5895 8.81257 13.7719 8.59499C13.9493 8.37545 14.0766 8.11983 14.1449 7.84599C14.2235 7.53586 14.2618 7.21691 14.2589 6.89699C14.2783 6.51915 14.2491 6.14038 14.1719 5.76999C14.0987 5.49735 13.9616 5.24608 13.7719 5.03699C13.6231 4.86815 13.441 4.73196 13.2369 4.63699C13.0617 4.55591 12.8774 4.49615 12.6879 4.45899C12.6126 4.44654 12.5363 4.44086 12.4599 4.44199L12.4559 4.44399ZM12.2779 8.37899H12.1779V5.31499H12.1909C12.3971 5.29127 12.6057 5.32847 12.7909 5.42199C12.9266 5.53032 13.0371 5.66679 13.1149 5.82199C13.1989 5.98533 13.2473 6.1646 13.2569 6.34799C13.2659 6.56799 13.2569 6.74799 13.2569 6.89699C13.261 7.06863 13.25 7.24029 13.2239 7.40999C13.1931 7.58422 13.1361 7.75279 13.0549 7.90999C12.963 8.05615 12.8388 8.1793 12.6919 8.26999C12.5686 8.34979 12.4225 8.38702 12.2759 8.37599" fill="white"/>
<path d="M17.3532 4.46101H14.9232V9.26101H15.9512V7.35701H17.2512V6.46501H15.9512V5.35301H17.3512V4.46101" fill="white"/>
</svg>
