<svg width="18" height="18" viewBox="0 0 18 18" fill="none" xmlns="http://www.w3.org/2000/svg">
<rect width="18" height="18" fill="white"/>
<path d="M13.556 1.16553L16.6857 4.42803V16.8345H4.99414V16.875H16.7256V4.46909L13.556 1.16553Z" fill="#909090"/>
<path d="M13.518 1.125H4.95508V16.8345H16.6866V4.42856L13.5175 1.125" fill="#F4F4F4"/>
<path d="M4.86781 1.96875H1.27344V5.80894H12.5797V1.96875H4.86781Z" fill="#7A7B7C"/>
<path d="M12.641 5.74388H1.34766V1.90088H12.641V5.74388Z" fill="#DD2025"/>
<path d="M5.09261 2.55029H4.35742V5.25029H4.93567V4.33961L5.06336 4.34692C5.18743 4.34478 5.31034 4.32256 5.4273 4.28111C5.52984 4.24584 5.62418 4.19015 5.70461 4.11742C5.78645 4.04813 5.85098 3.96068 5.89305 3.86204C5.94946 3.69807 5.96961 3.52381 5.95211 3.35129C5.9486 3.22805 5.92699 3.106 5.88798 2.98904C5.85248 2.90462 5.79978 2.82851 5.73325 2.76556C5.66672 2.70261 5.58781 2.6542 5.50155 2.62342C5.42696 2.59642 5.34991 2.57682 5.27148 2.56492C5.2121 2.55576 5.15213 2.55087 5.09205 2.55029H5.09261ZM4.98573 3.84067H4.93567V3.00817H5.04423C5.09215 3.00471 5.14023 3.01207 5.18492 3.02969C5.2296 3.04731 5.26976 3.07475 5.30242 3.10998C5.3701 3.20055 5.40626 3.31079 5.40536 3.42386C5.40536 3.56223 5.40536 3.68767 5.28048 3.77598C5.19052 3.82546 5.08812 3.84774 4.98573 3.84011" fill="#464648"/>
<path d="M7.04911 2.5432C6.98667 2.5432 6.92592 2.5477 6.88317 2.54938L6.7493 2.55276H6.31055V5.25276H6.82692C7.02426 5.25817 7.22074 5.22472 7.40517 5.15432C7.55362 5.09544 7.68508 5.00052 7.78767 4.87813C7.88744 4.75464 7.95904 4.61086 7.99748 4.45682C8.04168 4.28237 8.06323 4.10296 8.06161 3.92301C8.07252 3.71047 8.05607 3.49742 8.01267 3.28907C7.97149 3.13571 7.89436 2.99437 7.78767 2.87676C7.70397 2.78179 7.6015 2.70518 7.48673 2.65176C7.38817 2.60615 7.28449 2.57253 7.17792 2.55163C7.13554 2.54463 7.09262 2.54143 7.04967 2.54207L7.04911 2.5432ZM6.9473 4.75663H6.89105V3.03313H6.89836C7.01432 3.01979 7.13166 3.04072 7.23586 3.09332C7.31217 3.15426 7.37435 3.23102 7.41811 3.31832C7.46533 3.4102 7.49256 3.51104 7.49798 3.6142C7.50305 3.73795 7.49798 3.8392 7.49798 3.92301C7.50028 4.01956 7.49406 4.11612 7.47942 4.21157C7.46209 4.30958 7.43004 4.4044 7.38436 4.49282C7.33266 4.57503 7.26281 4.64431 7.18017 4.69532C7.11077 4.74021 7.02859 4.76115 6.94617 4.75495" fill="#464648"/>
<path d="M9.80437 2.55273H8.4375V5.25273H9.01575V4.18173H9.747V3.67998H9.01575V3.05448H9.80325V2.55273" fill="#464648"/>
<path d="M12.2514 11.3936C12.2514 11.3936 14.0446 11.0685 14.0446 11.681C14.0446 12.2936 12.9337 12.0444 12.2514 11.3936ZM10.9256 11.4403C10.6407 11.5032 10.363 11.5954 10.097 11.7153L10.322 11.2091C10.547 10.7028 10.7805 10.0127 10.7805 10.0127C11.0489 10.4645 11.3613 10.8888 11.7131 11.2794C11.4478 11.319 11.1849 11.373 10.9256 11.4414V11.4403ZM10.2157 7.78403C10.2157 7.25022 10.3884 7.10453 10.5228 7.10453C10.6573 7.10453 10.8086 7.16922 10.8136 7.63272C10.7698 8.09879 10.6723 8.55822 10.5228 9.00185C10.3181 8.62938 10.2122 8.21071 10.2151 7.78572L10.2157 7.78403ZM7.60064 13.6993C7.05052 13.3702 8.75433 12.3572 9.06315 12.3245C9.06146 12.3251 8.17664 14.0435 7.60064 13.6993ZM14.5683 11.7536C14.5627 11.6973 14.5121 11.0747 13.404 11.1011C12.9421 11.0937 12.4804 11.1262 12.0241 11.1984C11.5822 10.7531 11.2016 10.2509 10.8924 9.70497C11.0872 9.14215 11.2051 8.5556 11.2428 7.96122C11.2265 7.28622 11.0651 6.89922 10.5476 6.90485C10.0301 6.91047 9.95471 7.36328 10.0228 8.03716C10.0894 8.49 10.2152 8.93214 10.3968 9.35228C10.3968 9.35228 10.1578 10.0965 9.84164 10.8367C9.52552 11.577 9.30952 11.9651 9.30952 11.9651C8.7598 12.1441 8.24231 12.4099 7.77671 12.7526C7.31321 13.184 7.12477 13.5153 7.36889 13.8467C7.57927 14.1324 8.31558 14.1971 8.97371 13.3348C9.32339 12.8894 9.64285 12.4211 9.92996 11.933C9.92996 11.933 10.9335 11.658 11.2456 11.5826C11.5578 11.5072 11.9353 11.4476 11.9353 11.4476C11.9353 11.4476 12.8516 12.3695 13.7353 12.3369C14.619 12.3043 14.5762 11.8087 14.5706 11.7547" fill="#DD2025"/>
<path d="M13.4746 1.16846V4.47202H16.6432L13.4746 1.16846Z" fill="#909090"/>
<path d="M13.5176 1.125V4.42856H16.6861L13.5176 1.125Z" fill="#F4F4F4"/>
<path d="M5.04769 2.50684H4.3125V5.20684H4.893V4.29671L5.02125 4.30402C5.14532 4.30189 5.26823 4.27966 5.38519 4.23821C5.48773 4.20293 5.58206 4.14725 5.6625 4.07452C5.74373 4.00505 5.80767 3.91762 5.84925 3.81915C5.90567 3.65518 5.92582 3.48092 5.90831 3.3084C5.9048 3.18516 5.88319 3.0631 5.84419 2.94615C5.80868 2.86172 5.75598 2.78561 5.68945 2.72266C5.62292 2.65972 5.54401 2.61131 5.45775 2.58052C5.38282 2.55326 5.30538 2.53348 5.22656 2.52146C5.16718 2.5123 5.10721 2.50741 5.04712 2.50684H5.04769ZM4.94081 3.79721H4.89075V2.96471H4.99987C5.04779 2.96126 5.09587 2.96861 5.14056 2.98623C5.18524 3.00386 5.2254 3.0313 5.25806 3.06652C5.32574 3.15709 5.3619 3.26734 5.361 3.3804C5.361 3.51877 5.361 3.64421 5.23612 3.73252C5.14616 3.782 5.04376 3.80428 4.94137 3.79665" fill="white"/>
<path d="M7.00641 2.49974C6.94397 2.49974 6.88322 2.50424 6.84047 2.50593L6.70828 2.5093H6.26953V5.2093H6.78591C6.98325 5.21471 7.17972 5.18127 7.36416 5.11087C7.51261 5.05198 7.64406 4.95707 7.74666 4.83468C7.84642 4.71118 7.91803 4.5674 7.95647 4.41337C8.00066 4.23892 8.02221 4.0595 8.02059 3.87955C8.0315 3.66702 8.01506 3.45396 7.97166 3.24562C7.93047 3.09226 7.85334 2.95092 7.74666 2.8333C7.66295 2.73833 7.56049 2.66172 7.44572 2.6083C7.34716 2.56269 7.24348 2.52908 7.13691 2.50818C7.09453 2.50118 7.05161 2.49798 7.00866 2.49861L7.00641 2.49974ZM6.90628 4.71318H6.85003V2.98968H6.85734C6.97331 2.97633 7.09064 2.99726 7.19484 3.04987C7.27115 3.1108 7.33333 3.18756 7.37709 3.27487C7.42432 3.36674 7.45154 3.46758 7.45697 3.57074C7.46203 3.69449 7.45697 3.79574 7.45697 3.87955C7.45926 3.9761 7.45305 4.07266 7.43841 4.16812C7.42107 4.26612 7.38902 4.36094 7.34334 4.44937C7.29164 4.53158 7.22179 4.60085 7.13916 4.65187C7.06976 4.69675 6.98757 4.71769 6.90516 4.71149" fill="white"/>
<path d="M9.76141 2.50928H8.39453V5.20928H8.97278V4.13828H9.70403V3.63653H8.97278V3.01103H9.76028V2.50928" fill="white"/>
</svg>
