<svg width="16" height="14" viewBox="0 0 16 14" fill="none" xmlns="http://www.w3.org/2000/svg">
<path fill-rule="evenodd" clip-rule="evenodd" d="M6.12499 4.75012H10.025V6.25012H10.0239L10.0254 6.85506L9.13032 7.75012L10.025 8.64479V10.7501H6.12499V8.80275L6.12408 8.6457L7.02865 7.74114L6.12447 6.77238L6.12761 5.87665L6.12497 5.65012L6.12499 4.75012ZM8.07499 8.4117L7.39999 9.0867V9.47512H8.74999V9.0867L8.07499 8.4117ZM8.07499 7.08854L8.74999 6.41354V6.02512H7.39999V6.41354L8.07499 7.08854Z" fill="#889DAA"/>
<path fill-rule="evenodd" clip-rule="evenodd" d="M2 13.7501H14C14.8284 13.7501 15.5 13.0786 15.5 12.2501V3.25012C15.5 2.42169 14.8284 1.75012 14 1.75012H8.3105L7.03025 0.469872C6.88963 0.32921 6.6989 0.250122 6.5 0.250122H2C1.17157 0.250122 0.5 0.921695 0.5 1.75012V12.2501C0.5 13.0786 1.17157 13.7501 2 13.7501ZM2 12.2501V3.25012H14V12.2501H2Z" fill="#889DAA"/>
</svg>
