<svg width="16" height="16" viewBox="0 0 16 16" fill="none" xmlns="http://www.w3.org/2000/svg">
<path d="M10.75 10.465C11.2139 10.465 11.59 10.0889 11.59 9.625C11.59 9.16108 11.2139 8.785 10.75 8.785C10.2861 8.785 9.91 9.16108 9.91 9.625C9.91 10.0889 10.2861 10.465 10.75 10.465Z" fill="#889DAA"/>
<path d="M10.75 11.125C10.2025 11.125 9.1075 11.395 9.07 11.935C9.445 12.4675 10.06 12.8125 10.75 12.8125C11.44 12.8125 12.055 12.4675 12.43 11.935C12.3925 11.395 11.2975 11.125 10.75 11.125Z" fill="#889DAA"/>
<path fill-rule="evenodd" clip-rule="evenodd" d="M11.5 2.7025V6.3175C13.63 6.6775 15.25 8.5225 15.25 10.75C15.25 13.2325 13.2325 15.25 10.75 15.25C9.2275 15.25 7.885 14.4925 7.075 13.3375C6.685 13.51 6.2875 13.6525 5.875 13.75C2.65 12.9775 0.25 9.79 0.25 6.385V2.7025L5.875 0.25L11.5 2.7025ZM6.4225 11.965C6.31 11.5825 6.25 11.17 6.25 10.75C6.25 8.5225 7.87 6.6775 10 6.3175V3.685L5.875 1.885L1.75 3.685V6.385C1.75 9.01 3.4975 11.44 5.875 12.19C6.0625 12.13 6.2425 12.0475 6.4225 11.965ZM7.75 10.75C7.75 12.4075 9.0925 13.75 10.75 13.75C12.4075 13.75 13.75 12.4075 13.75 10.75C13.75 9.0925 12.4075 7.75 10.75 7.75C9.0925 7.75 7.75 9.0925 7.75 10.75Z" fill="#889DAA"/>
</svg>
