<svg width="16" height="12" viewBox="0 0 16 12" fill="none" xmlns="http://www.w3.org/2000/svg">
<path d="M2 11.25H0.5C0.5 8.76472 2.51472 6.75 5 6.75C7.48528 6.75 9.5 8.76472 9.5 11.25H8C8 9.59315 6.65685 8.25 5 8.25C3.34315 8.25 2 9.59315 2 11.25ZM10.9955 8.5575L8.966 6.5325L10.025 5.469L10.994 6.438L14.219 3.219L15.278 4.281L10.994 8.556L10.9955 8.5575ZM5 6C3.34315 6 2 4.65685 2 3C2 1.34315 3.34315 0 5 0C6.65685 0 8 1.34315 8 3C7.99793 4.656 6.656 5.99793 5 6ZM5 1.5C4.18055 1.50083 3.51342 2.15914 3.50167 2.97851C3.48993 3.79787 4.13792 4.47503 4.95702 4.49934C5.77611 4.52365 6.46312 3.88612 6.5 3.0675V3.3675V3C6.5 2.17157 5.82843 1.5 5 1.5Z" fill="#889DAA"/>
</svg>
