<svg width="40" height="40" viewBox="0 0 40 40" fill="none" xmlns="http://www.w3.org/2000/svg">
<path d="M0 10C0 4.47715 4.47715 0 10 0H30C35.5228 0 40 4.47715 40 10V30C40 35.5228 35.5228 40 30 40H10C4.47715 40 0 35.5228 0 30V10Z" fill="white"/>
<path d="M17 25.9999C15.6314 26.0006 14.4359 25.075 14.0938 23.7499H12.5V22.2499H14.0945C14.4842 20.7405 15.9651 19.7811 17.502 20.0423C19.0388 20.3035 20.1195 21.6983 19.9886 23.2518C19.8578 24.8052 18.5589 25.9995 17 25.9999ZM17 21.4999C16.1805 21.5007 15.5134 22.159 15.5017 22.9784C15.4899 23.7978 16.1379 24.4749 16.957 24.4992C17.7761 24.5235 18.4631 23.886 18.5 23.0674V23.3674V22.9999C18.5 22.1715 17.8284 21.4999 17 21.4999ZM27.5 23.7499H20.75V22.2499H27.5V23.7499ZM20.75 19.9999C19.3817 20.0002 18.1866 19.0747 17.8445 17.7499H12.5V16.2499H17.8445C18.2342 14.7405 19.7151 13.7811 21.252 14.0423C22.7888 14.3035 23.8695 15.6983 23.7386 17.2518C23.6078 18.8052 22.3089 19.9995 20.75 19.9999ZM20.75 15.4999C19.9305 15.5007 19.2634 16.159 19.2517 16.9784C19.2399 17.7978 19.8879 18.4749 20.707 18.4992C21.5261 18.5235 22.2131 17.886 22.25 17.0674V17.3674V16.9999C22.25 16.1715 21.5784 15.4999 20.75 15.4999ZM27.5 17.7499H24.5V16.2499H27.5V17.7499Z" fill="#1B2125"/>
<path d="M10 1H30V-1H10V1ZM39 10V30H41V10H39ZM30 39H10V41H30V39ZM1 30V10H-1V30H1ZM10 39C5.02944 39 1 34.9706 1 30H-1C-1 36.0751 3.92487 41 10 41V39ZM39 30C39 34.9706 34.9706 39 30 39V41C36.0751 41 41 36.0751 41 30H39ZM30 1C34.9706 1 39 5.02944 39 10H41C41 3.92487 36.0751 -1 30 -1V1ZM10 -1C3.92487 -1 -1 3.92487 -1 10H1C1 5.02944 5.02944 1 10 1V-1Z" fill="#E5E7EB"/>
</svg>
