<svg width="14" height="13" viewBox="0 0 14 13" fill="none" xmlns="http://www.w3.org/2000/svg">
<path d="M12.008 12.7052L7.72173 8.41823C5.81498 9.77383 3.18756 9.44224 1.67738 7.65543C0.167211 5.86862 0.278099 3.22268 1.93248 1.56848C3.58642 -0.0864309 6.23262 -0.197799 8.01977 1.3123C9.80692 2.82239 10.1387 5.45007 8.78298 7.35699L13.0692 11.644L12.0087 12.7045L12.008 12.7052ZM5.11398 1.74997C3.69176 1.74965 2.46475 2.74799 2.17584 4.14056C1.88692 5.53313 2.61551 6.93719 3.92049 7.50266C5.22546 8.06814 6.74815 7.63961 7.56666 6.47652C8.38517 5.31344 8.27453 3.73547 7.30173 2.69798L7.75548 3.14798L7.24398 2.63798L7.23498 2.62898C6.67382 2.06437 5.91003 1.74783 5.11398 1.74997Z" fill="#8A8A8D"/>
</svg>
