<svg width="18" height="18" viewBox="0 0 18 18" fill="none" xmlns="http://www.w3.org/2000/svg">
<path d="M14.9253 9.495C14.8051 9.35813 14.7388 9.18218 14.7388 9C14.7388 8.81782 14.8051 8.64187 14.9253 8.505L15.8853 7.425C15.9911 7.307 16.0568 7.15853 16.073 7.00088C16.0891 6.84323 16.0549 6.68451 15.9753 6.5475L14.4753 3.9525C14.3965 3.81564 14.2765 3.70716 14.1324 3.64251C13.9883 3.57787 13.8275 3.56037 13.6728 3.5925L12.2628 3.8775C12.0834 3.91457 11.8966 3.88469 11.7377 3.7935C11.5788 3.70231 11.4588 3.55611 11.4003 3.3825L10.9428 2.01C10.8925 1.86103 10.7966 1.73165 10.6688 1.64013C10.5409 1.54861 10.3876 1.49959 10.2303 1.5H7.23032C7.06677 1.49146 6.90492 1.53669 6.76949 1.62879C6.63407 1.72088 6.5325 1.85476 6.48032 2.01L6.06032 3.3825C6.00182 3.55611 5.8818 3.70231 5.7229 3.7935C5.56401 3.88469 5.37723 3.91457 5.19782 3.8775L3.75032 3.5925C3.60373 3.57178 3.45429 3.59492 3.32083 3.65898C3.18736 3.72304 3.07585 3.82517 3.00032 3.9525L1.50032 6.5475C1.41869 6.68299 1.38199 6.84081 1.39546 6.99842C1.40893 7.15602 1.47188 7.30533 1.57532 7.425L2.52782 8.505C2.64806 8.64187 2.71437 8.81782 2.71437 9C2.71437 9.18218 2.64806 9.35813 2.52782 9.495L1.57532 10.575C1.47188 10.6947 1.40893 10.844 1.39546 11.0016C1.38199 11.1592 1.41869 11.317 1.50032 11.4525L3.00032 14.0475C3.07914 14.1844 3.19916 14.2928 3.34326 14.3575C3.48736 14.4221 3.64819 14.4396 3.80282 14.4075L5.21282 14.1225C5.39223 14.0854 5.57901 14.1153 5.7379 14.2065C5.8968 14.2977 6.01682 14.4439 6.07532 14.6175L6.53282 15.99C6.585 16.1452 6.68657 16.2791 6.82199 16.3712C6.95742 16.4633 7.11927 16.5085 7.28282 16.5H10.2828C10.4401 16.5004 10.5934 16.4514 10.7213 16.3599C10.8491 16.2684 10.945 16.139 10.9953 15.99L11.4528 14.6175C11.5113 14.4439 11.6313 14.2977 11.7902 14.2065C11.9491 14.1153 12.1359 14.0854 12.3153 14.1225L13.7253 14.4075C13.88 14.4396 14.0408 14.4221 14.1849 14.3575C14.329 14.2928 14.449 14.1844 14.5278 14.0475L16.0278 11.4525C16.1074 11.3155 16.1416 11.1568 16.1255 10.9991C16.1093 10.8415 16.0436 10.693 15.9378 10.575L14.9253 9.495ZM13.8078 10.5L14.4078 11.175L13.4478 12.84L12.5628 12.66C12.0227 12.5496 11.4607 12.6413 10.9838 12.9179C10.5068 13.1944 10.1479 13.6364 9.97532 14.16L9.69032 15H7.77032L7.50032 14.145C7.32771 13.6214 6.96885 13.1794 6.49187 12.9029C6.01489 12.6263 5.45298 12.5346 4.91282 12.645L4.02782 12.825L3.05282 11.1675L3.65282 10.4925C4.02179 10.08 4.22577 9.54595 4.22577 8.9925C4.22577 8.43905 4.02179 7.90502 3.65282 7.4925L3.05282 6.8175L4.01282 5.1675L4.89782 5.3475C5.43798 5.45792 5.99989 5.36616 6.47687 5.08965C6.95385 4.81314 7.31271 4.37112 7.48532 3.8475L7.77032 3H9.69032L9.97532 3.855C10.1479 4.37862 10.5068 4.82064 10.9838 5.09715C11.4607 5.37366 12.0227 5.46542 12.5628 5.355L13.4478 5.175L14.4078 6.84L13.8078 7.515C13.443 7.92657 13.2415 8.45751 13.2415 9.0075C13.2415 9.55749 13.443 10.0884 13.8078 10.5V10.5ZM8.73032 6C8.13698 6 7.55696 6.17595 7.06361 6.50559C6.57026 6.83524 6.18574 7.30377 5.95868 7.85195C5.73162 8.40013 5.67221 9.00333 5.78796 9.58527C5.90372 10.1672 6.18944 10.7018 6.609 11.1213C7.02856 11.5409 7.56311 11.8266 8.14505 11.9424C8.72699 12.0581 9.33019 11.9987 9.87837 11.7716C10.4265 11.5446 10.8951 11.1601 11.2247 10.6667C11.5544 10.1734 11.7303 9.59334 11.7303 9C11.7303 8.20435 11.4142 7.44129 10.8516 6.87868C10.289 6.31607 9.52597 6 8.73032 6V6ZM8.73032 10.5C8.43365 10.5 8.14364 10.412 7.89696 10.2472C7.65029 10.0824 7.45803 9.84811 7.3445 9.57402C7.23097 9.29994 7.20126 8.99834 7.25914 8.70736C7.31702 8.41639 7.45988 8.14912 7.66966 7.93934C7.87944 7.72956 8.14671 7.5867 8.43768 7.52882C8.72866 7.47094 9.03025 7.50065 9.30434 7.61418C9.57843 7.72771 9.8127 7.91997 9.97752 8.16664C10.1423 8.41332 10.2303 8.70333 10.2303 9C10.2303 9.39782 10.0723 9.77935 9.79098 10.0607C9.50967 10.342 9.12814 10.5 8.73032 10.5Z" fill="#889DAA"/>
</svg>
