<svg width="18" height="18" viewBox="0 0 18 18" fill="none" xmlns="http://www.w3.org/2000/svg">
<path d="M9 17.25L1.875 13.125V4.875L9 0.75L16.125 4.875V13.125L9 17.25ZM9 2.484L3.375 5.73975V12.2603L9 15.5167L14.625 12.2603V5.73975L9 2.48325V2.484ZM9 12C8.20461 11.9977 7.44221 11.6819 6.87825 11.121C6.02043 10.2629 5.76394 8.97261 6.22836 7.85169C6.69278 6.73077 7.78668 6 9 6C9.79519 6.00213 10.5574 6.31802 11.121 6.879C12.2921 8.0505 12.2921 9.9495 11.121 11.121C10.5573 11.6818 9.79514 11.9976 9 12ZM9 7.5C8.28438 7.49985 7.66831 8.00523 7.52856 8.70707C7.38881 9.40892 7.76431 10.1117 8.4254 10.3857C9.0865 10.6597 9.84907 10.4285 10.2467 9.83356C10.6444 9.23861 10.5664 8.4456 10.0605 7.9395C9.77983 7.65733 9.39799 7.49909 9 7.5Z" fill="#1B2125"/>
</svg>
