<svg width="24" height="24" viewBox="0 0 24 24" fill="none" xmlns="http://www.w3.org/2000/svg">
<path d="M17.9578 8.94375C17.9672 9.075 17.9672 9.21094 17.9672 9.34219C17.9672 13.4062 14.8734 18.0891 9.22031 18.0891C7.47656 18.0891 5.85938 17.5828 4.5 16.7109C4.74844 16.7391 4.9875 16.7484 5.24063 16.7484C6.67969 16.7484 8.00156 16.2609 9.05625 15.4359C7.70625 15.4078 6.57188 14.5219 6.18281 13.3031C6.65625 13.3734 7.08281 13.3734 7.57031 13.2469C6.16406 12.9609 5.10938 11.7234 5.10938 10.2281V10.1906C5.51719 10.4203 5.99531 10.5609 6.49687 10.5797C6.0752 10.2992 5.72952 9.91869 5.49069 9.4721C5.25186 9.02552 5.1273 8.52675 5.12813 8.02031C5.12813 7.44844 5.27813 6.92344 5.54531 6.46875C7.05938 8.33437 9.33281 9.55313 11.8828 9.68438C11.4469 7.59844 13.0078 5.90625 14.8828 5.90625C15.7688 5.90625 16.5656 6.27656 17.1281 6.87656C17.8219 6.74531 18.4875 6.4875 19.0781 6.13594C18.8484 6.84844 18.3656 7.44844 17.7281 7.82812C18.3469 7.7625 18.9469 7.58906 19.5 7.35C19.0828 7.96406 18.5578 8.50781 17.9578 8.94375Z" fill="#1B2125"/>
<path d="M20.25 1.5H3.75C2.50781 1.5 1.5 2.50781 1.5 3.75V20.25C1.5 21.4922 2.50781 22.5 3.75 22.5H20.25C21.4922 22.5 22.5 21.4922 22.5 20.25V3.75C22.5 2.50781 21.4922 1.5 20.25 1.5ZM17.9578 8.94375C17.9672 9.075 17.9672 9.21094 17.9672 9.34219C17.9672 13.4062 14.8734 18.0891 9.22031 18.0891C7.47656 18.0891 5.85938 17.5828 4.5 16.7109C4.74844 16.7391 4.9875 16.7484 5.24063 16.7484C6.67969 16.7484 8.00156 16.2609 9.05625 15.4359C7.70625 15.4078 6.57188 14.5219 6.18281 13.3031C6.65625 13.3734 7.08281 13.3734 7.57031 13.2469C6.16406 12.9609 5.10938 11.7234 5.10938 10.2281V10.1906C5.51719 10.4203 5.99531 10.5609 6.49687 10.5797C6.0752 10.2992 5.72952 9.91869 5.49069 9.4721C5.25186 9.02552 5.1273 8.52675 5.12813 8.02031C5.12812 7.44844 5.27813 6.92344 5.54531 6.46875C7.05938 8.33437 9.33281 9.55313 11.8828 9.68438C11.4469 7.59844 13.0078 5.90625 14.8828 5.90625C15.7688 5.90625 16.5656 6.27656 17.1281 6.87656C17.8219 6.74531 18.4875 6.4875 19.0781 6.13594C18.8484 6.84844 18.3656 7.44844 17.7281 7.82812C18.3469 7.7625 18.9469 7.58906 19.5 7.35C19.0828 7.96406 18.5578 8.50781 17.9578 8.94375Z" fill="#C6C6C8"/>
</svg>
