<svg width="32" height="32" viewBox="0 0 32 32" fill="none" xmlns="http://www.w3.org/2000/svg">
<path d="M24.1001 2.07208L29.6641 7.87208V29.9281H8.87915V30.0001H29.7351V7.94508L24.1001 2.07208Z" fill="#909090"/>
<path d="M24.0311 2H8.80811V29.928H29.6641V7.873L24.0301 2" fill="#F4F4F4"/>
<path d="M8.65514 3.5H2.26514V10.327H22.3651V3.5H8.65514Z" fill="#7A7B7C"/>
<path d="M22.4723 10.211H2.39526V3.37903H22.4723V10.211Z" fill="#DD2025"/>
<path d="M9.05187 4.53394H7.74487V9.33394H8.77287V7.71494L8.99987 7.72794C9.22044 7.72414 9.43894 7.68463 9.64687 7.61094C9.82918 7.54823 9.99688 7.44924 10.1399 7.31994C10.2854 7.19676 10.4001 7.04129 10.4749 6.86594C10.5752 6.57443 10.611 6.26463 10.5799 5.95794C10.5736 5.73884 10.5352 5.52186 10.4659 5.31394C10.4027 5.16384 10.3091 5.02854 10.1908 4.91663C10.0725 4.80472 9.93223 4.71866 9.77887 4.66394C9.64628 4.61593 9.50929 4.5811 9.36987 4.55994C9.2643 4.54365 9.15769 4.53496 9.05087 4.53394H9.05187ZM8.86187 6.82794H8.77287V5.34794H8.96587C9.05105 5.34179 9.13652 5.35487 9.21597 5.3862C9.29542 5.41753 9.36681 5.46631 9.42487 5.52894C9.54519 5.68995 9.60947 5.88594 9.60787 6.08694C9.60787 6.33294 9.60787 6.55594 9.38587 6.71294C9.22594 6.8009 9.0439 6.8405 8.86187 6.82694" fill="#464648"/>
<path d="M12.5332 4.52094C12.4222 4.52094 12.3142 4.52894 12.2382 4.53194L12.0002 4.53794H11.2202V9.33794H12.1382C12.489 9.34756 12.8383 9.2881 13.1662 9.16294C13.4301 9.05826 13.6638 8.88952 13.8462 8.67194C14.0236 8.4524 14.1509 8.19678 14.2192 7.92294C14.2978 7.61281 14.3361 7.29386 14.3332 6.97394C14.3526 6.5961 14.3234 6.21733 14.2462 5.84694C14.173 5.5743 14.0359 5.32303 13.8462 5.11394C13.6974 4.9451 13.5152 4.80891 13.3112 4.71394C13.136 4.63286 12.9517 4.5731 12.7622 4.53594C12.6869 4.52349 12.6106 4.51781 12.5342 4.51894L12.5332 4.52094ZM12.3522 8.45594H12.2522V5.39194H12.2652C12.4714 5.36822 12.68 5.40542 12.8652 5.49894C13.0009 5.60727 13.1114 5.74374 13.1892 5.89894C13.2732 6.06228 13.3216 6.24155 13.3312 6.42494C13.3402 6.64494 13.3312 6.82494 13.3312 6.97394C13.3353 7.14558 13.3242 7.31724 13.2982 7.48694C13.2674 7.66117 13.2104 7.82974 13.1292 7.98694C13.0373 8.1331 12.9131 8.25625 12.7662 8.34694C12.6428 8.42674 12.4967 8.46397 12.3502 8.45294" fill="#464648"/>
<path d="M17.43 4.53798H15V9.33798H16.028V7.43398H17.328V6.54198H16.028V5.42998H17.428V4.53798" fill="#464648"/>
<path d="M21.7812 20.255C21.7812 20.255 24.9692 19.677 24.9692 20.766C24.9692 21.855 22.9942 21.412 21.7812 20.255ZM19.4242 20.338C18.9177 20.4499 18.4241 20.6138 17.9512 20.827L18.3512 19.927C18.7512 19.027 19.1662 17.8 19.1662 17.8C19.6435 18.6033 20.1988 19.3576 20.8242 20.052C20.3526 20.1223 19.8852 20.2185 19.4242 20.34V20.338ZM18.1622 13.838C18.1622 12.889 18.4692 12.63 18.7082 12.63C18.9472 12.63 19.2162 12.745 19.2252 13.569C19.1473 14.3976 18.9738 15.2143 18.7082 16.003C18.3443 15.3408 18.156 14.5965 18.1612 13.841L18.1622 13.838ZM13.5132 24.354C12.5352 23.769 15.5642 21.968 16.1132 21.91C16.1102 21.911 14.5372 24.966 13.5132 24.354V24.354ZM25.9002 20.895C25.8902 20.795 25.8002 19.688 23.8302 19.735C23.0091 19.7218 22.1883 19.7796 21.3772 19.908C20.5914 19.1164 19.9148 18.2235 19.3652 17.253C19.7115 16.2524 19.921 15.2097 19.9882 14.153C19.9592 12.953 19.6722 12.265 18.7522 12.275C17.8322 12.285 17.6982 13.09 17.8192 14.288C17.9377 15.093 18.1613 15.8791 18.4842 16.626C18.4842 16.626 18.0592 17.949 17.4972 19.265C16.9352 20.581 16.5512 21.271 16.5512 21.271C15.5739 21.5891 14.6539 22.0618 13.8262 22.671C13.0022 23.438 12.6672 24.027 13.1012 24.616C13.4752 25.124 14.7842 25.239 15.9542 23.706C16.5758 22.9142 17.1438 22.0817 17.6542 21.214C17.6542 21.214 19.4382 20.725 19.9932 20.591C20.5482 20.457 21.2192 20.351 21.2192 20.351C21.2192 20.351 22.8482 21.99 24.4192 21.932C25.9902 21.874 25.9142 20.993 25.9042 20.897" fill="#DD2025"/>
<path d="M23.9541 2.07695V7.94995H29.5871L23.9541 2.07695Z" fill="#909090"/>
<path d="M24.031 2V7.873H29.664L24.031 2Z" fill="#F4F4F4"/>
<path d="M8.97497 4.45699H7.66797V9.25699H8.69997V7.63899L8.92797 7.65199C9.14854 7.64819 9.36704 7.60868 9.57497 7.53499C9.75726 7.47226 9.92496 7.37327 10.068 7.24399C10.2124 7.12047 10.326 6.96504 10.4 6.78999C10.5003 6.49848 10.5361 6.18868 10.505 5.88199C10.4987 5.66289 10.4603 5.44591 10.391 5.23799C10.3278 5.08789 10.2342 4.95259 10.1159 4.84068C9.9976 4.72877 9.85732 4.64271 9.70397 4.58799C9.57077 4.53952 9.4331 4.50435 9.29297 4.48299C9.18739 4.4667 9.08079 4.45801 8.97397 4.45699H8.97497ZM8.78497 6.75099H8.69597V5.27099H8.88997C8.97515 5.26484 9.06062 5.27792 9.14007 5.30925C9.21952 5.34058 9.29091 5.38936 9.34897 5.45199C9.46929 5.613 9.53356 5.80899 9.53197 6.00999C9.53197 6.25599 9.53197 6.47899 9.30997 6.63599C9.15004 6.72395 8.96799 6.76355 8.78597 6.74999" fill="white"/>
<path d="M12.456 4.44399C12.345 4.44399 12.237 4.45199 12.161 4.45499L11.926 4.46099H11.146V9.26099H12.064C12.4148 9.27061 12.7641 9.21115 13.092 9.08599C13.3559 8.98131 13.5896 8.81257 13.772 8.59499C13.9494 8.37545 14.0767 8.11983 14.145 7.84599C14.2236 7.53586 14.2619 7.21691 14.259 6.89699C14.2784 6.51915 14.2492 6.14038 14.172 5.76999C14.0988 5.49735 13.9617 5.24608 13.772 5.03699C13.6232 4.86815 13.441 4.73196 13.237 4.63699C13.0618 4.55591 12.8775 4.49615 12.688 4.45899C12.6127 4.44654 12.5364 4.44086 12.46 4.44199L12.456 4.44399ZM12.278 8.37899H12.178V5.31499H12.191C12.3972 5.29127 12.6057 5.32847 12.791 5.42199C12.9267 5.53032 13.0372 5.66679 13.115 5.82199C13.199 5.98533 13.2473 6.1646 13.257 6.34799C13.266 6.56799 13.257 6.74799 13.257 6.89699C13.2611 7.06863 13.25 7.24029 13.224 7.40999C13.1932 7.58422 13.1362 7.75279 13.055 7.90999C12.9631 8.05615 12.8389 8.1793 12.692 8.26999C12.5686 8.34979 12.4225 8.38702 12.276 8.37599" fill="white"/>
<path d="M17.3531 4.46101H14.9231V9.26101H15.9511V7.35701H17.2511V6.46501H15.9511V5.35301H17.3511V4.46101" fill="white"/>
</svg>
