<svg width="12" height="16" viewBox="0 0 12 16" fill="none" xmlns="http://www.w3.org/2000/svg">
<path d="M6 15.5C5.17157 15.5 4.5 14.8284 4.5 14H7.5C7.5 14.8284 6.82843 15.5 6 15.5ZM12 13.25H0V11.75L1.5 11V6.875C1.5 4.2785 2.56575 2.59475 4.5 2.135V0.5H7.5V2.135C9.43425 2.594 10.5 4.277 10.5 6.875V11L12 11.75V13.25ZM6 3.3125C5.08475 3.2534 4.20209 3.66296 3.65625 4.4C3.18941 5.13842 2.96035 6.00229 3 6.875V11.75H9V6.875C9.0396 6.00229 8.81055 5.13844 8.34375 4.4C7.79791 3.66296 6.91525 3.2534 6 3.3125Z" fill="#10B981"/>
</svg>
